<mxfile host="app.diagrams.net" agent="Mozilla/5.0 (Windows NT 10.0; Win64; x64) AppleWebKit/537.36 (KHTML, like Gecko) Chrome/136.0.0.0 Safari/537.36" version="27.0.3">
  <diagram name="Page-1" id="GojqZeq4Ur87DjZPe15h">
    <mxGraphModel dx="2106" dy="1836" grid="1" gridSize="10" guides="1" tooltips="1" connect="1" arrows="1" fold="1" page="1" pageScale="1" pageWidth="850" pageHeight="1100" math="0" shadow="0">
      <root>
        <mxCell id="0" />
        <mxCell id="1" parent="0" />
        <mxCell id="R96NSeAY9rBo8u3nE3na-1" value="" style="shape=image;verticalLabelPosition=bottom;labelBackgroundColor=default;verticalAlign=top;aspect=fixed;imageAspect=0;image=data:image/png,iVBORw0KGgoAAAANSUhEUgAAAewAAAF5CAIAAADS447HAAAgAElEQVR4Aex9h3cUR7a+/4aeme7pydLkqNGMIhkENtkmOAMGZxzWNjjgsNhgkEAiSASTM4gsIQkRJRFFEhhMMmADNrbX6w1vw3tvf+e9s2/359EV5VJP122hQRjsmqMD1VVddau+qvr69u26Vff9m/84AhwBjgBH4J5F4D6B8ZMkSRRFRqJgMBgkSWKlCoLgdrtZNxiNRr1ez8qLyxVFkVUsFOjxeAwGg2rhOp1OlmXVJEEQUpTr8/lYjQK5Op1OVbROp2NVWBAEsfmnmhEi/X4/K1VTLtIRBoMB6X1BEAKBAEuuXq+XZRlpLyJXEAQ8NUW57a6VwWDwer2qTdbr9UajUTVJEARIReTKsswaOTAA3G43q3BkOrRFLqtW0AsulwuRiwwPhBzwMSkIgizL6enpLLmpTFJ8WJrN5rS0tA6SiwwPQRDS0tJMJpOqaEmScHIAMuQk3oJeKuNDEARO4mQU4rNFp9PhNI2nchInOAPFs3QaTuI0UPA0RXQLTuIKuBKXXBMnoODaB9fECVAQ4CROAyKKItfECSCpaFq4bnFvk3iI8cto/jESQ5FIJCMjg5UaCoWys7NZN2RkZITDYVbejIyMSCTCStWUm5OTw8oeDoej0Sir5NTlshoFcpFUVoVDoQTOSGooFMrNzUVKjkajSCrSEW2Ry0JSs72I3FAohKfm5uZ2kFwEK+iInJwcVdHhcJg11EOhEKQivaApNzs7W1Uu1IolOkW5GRkZuFxkWCKTFB8boVAoGo1mZWWx2pvKJMVFR6PReDzeQXJZfQTisrKyWLyEt5dQ9H16xk9u/jESE0ZAk8lkMBhYN3g8HjD2KW4wGAwmk0mSJEU8uZRlGXQxEkMHjEajLMuIXJ/Px8puMBjMZjNdGh1OUa7f7xdFkS6QhEVRNJvNrDobDAZWhUF3wNsbCARYJWvKNZlMrDoDzqQJyYFgMJgcCTG4XFEUEbmaw6Pj5JrNZhYaer1ekiSwmCW3WpIkZC5otheXK8uy1+tNFgoxyHQAuayxAXMBaa/JZHK73apyDQZDW8iBlRdvr9lsdrlcrLxtmaSqefV6PT4srVar0+lUzQvtRSYpPlkkSUKmv16vdzqdFoslWTTMBUQu6QVuE295V0vlTY3bxMkLr6bxkdvEaazA1MY/bBJM+IdNAgWstuAfNmlABJgwraKoC07iFBiJ1UfI8gO+OoXGiq9OodEQBGzpGv59iK9OUSDJV6coAOEk3goQXCPmJN4KrGZi4ksMCSb4yle+xJAARdaY0jGKMF9iqABE4OvECSK41sNJnAAlCIkHPBgf6Ug6zNeJ02hwElegwVroyUmcBqoljHg3wB2cxAlqnMQJFISmWe4tnMRprLizjwKNVGytuLWNO/sooE5cchInoHASJ1BwEqehADQQzxdO4gq4OIkrANHwq04FL07iNNacxBVoGI1GrokDJvjY4CROj5wU9+TgmrgCzMReIoj5iZM4jRc+UXEDAv+wSSMJKy74h02CCbeJEyjwzQ/ukE0cVown/2tq/iXHQwyeKsuy3++3Wq2q2fG8qaTKshwIBCwWi6pcWZZNJhOS1O5UWZZDoZDZbEYKZyWlUitZlsPhMF7tjpPbvpLx9kIq0qJwONxxcpGSLRZLMBhUvQEfsW1pr2qxEGm1Wv1+P+sGXDQCo2atbDabz+drt1xENJIky7Ldbvd6vR0hF29yWloa+CeqitbEGW8UnurxeBwORypy79MxfmDWYCTqRFGEl1PWDW63m3WD0Wg0GAysjJpyJUli5dXpdF6vVxRF1RvI5gmqqSnK9fl8rEaBXL1eryoXfMlUk3Q6ndT8Y6XqdDq/34+UDE6zqtnhLY9VZ3jjUc0IkYFAgJWq2V58AOCpiFzwrEPQgPUnqtWGOrPQ0OkSA97r9armBZ9b1STYGEdTLqvOMAA8Hg+rcGR4EE9g1bx4H8E7nMvlUs2rOSyRwaMp12QyOZ1ORC5rdkMfIeSADw+z2Zyent5BcllMCOLS09PNZrOqaKPR2Jb2co/NlhejFG3xfBdD8oIJE7Xd1md8qR/fxZDgjL/Iw0Ma6QX+YZNG8t7eAItuCR3GSQ1Zzw+F8F0MCZiatmncsxb3nOT7iROc2/LwQEgNf3jwdeIEZ3h4IMMSIQd8LnCPTRpk7navQCNxCQNIJaE5Cn9oaX5Q5Zo4AbYtZIrsFoKT6a1q4qIo2my24cOHb9q06dq1a1evXr1y5cq6deuGDh3qdDrJ4xP/zMs/bJLOhQD/sEkDgpMDX51CY5UI43jx1Sk0XrjWg9PWL2N1is1me/HFF7dt23by5Mnly5e//vrrY8eOfemllz755JPjx4/v3r37ueees9lsZBU58mjhmjg9tDiJK9BAlsxxEqexSoQ5iSsQ4eYUAojiDcDhcEycOHHPnj0TJkzIyckht4FanZmZ+dprr+3YsaOkpCQYDOKPNK6J0+hxc0oyGpzEW2GSolmDe2wSNH/Nmrher581a1Z5efmwYcNYB6tKktS9e/fq6uo1a9bk5OTgZhyuiZNxxUmchkJTs+SauAIurokrAeGaOEGEaOI6nW7mzJmLFi0Kh8PE6k1uUwTi8fiqVau2bNmSk5PDzSkEHKPRyA9KJmikoln+zCTOekeAJZmIEzPYplWzw3srMrUQvOiloARfRQDWiSsi4RImuWoS+BmzPri3RS6sE1ctHOSyCAIKV81IL8hVvQH29WatuCCkppoXxharI8BsxSo5lf3EQS6CBqwTV60zLhcWAjudztLS0oULF7JKSI73+XzLly+vra3Nzs5OToUYWCeumkrWiaumarYXP+1ekiSPx6NaMj4syTpxVl5crizLLBLXHJbgRKIqF58LgiDAOnHVvCAX1k2r3oDI1TyrBNaJqxbbFrmqXAel4cNDEARYJ54sGqgSaS94CQiCcB+Ekv8FD6LkeIiBE4lYqXCWlcViUb0BzlhSTYKTrmRZZqVqyg0EAnD8m2oJeFIqcsGdT1UoNIqVhLcI7wVJkkKhkNFoZBWOtBcO2GPlxftIkqRwOMwSqtlek8nEkitJEi4akWs0GkOh0PTp00tLS9PT05NnBRITDodXrlxZWVmZm5ur2i6TyRQIBFST8B7EccaxkiTJYrH4/X5VuZIkIaJTlGu1Wr1eL0suPizBN5KVFxmTkiTZbDaPx8PKi48NXC4AwirZbrfDqmjVG1KUixCLJElut9tut7dPLpR8n4HxMzb/GIkGGECsVDAgwuGQyffIsiyKYnI8xKQoF87YZBXOqhIocXCOhmpezfbCTFPNC2flsZJgUS0rFUfDYDAEg0FWXk25SEdotjcUCrHkiqKI4AypyABAamUwGBC5drt99uzZpaWlwWAQ4WtWUigUWrVqVUVFRadOnZKbZjQa4WUrOalD2wtnbCYLhRikm/BawdhAesFkMsHnJVXR+LCEJ7FqRs0xabFYXC4XKy88+1mpuFwcEDhjk1UyLhdHA5drMBhcLpfValUV3Ua53GOzZVIjZhzNbxf8jE2aGXEzjuY6EPwDI7JOvLS0dPHixT6fj67MLYUjkcj69eu3bNkSi8UUGfmHTRoQvsRQgQZiTvmZbeIsGzGsuELqLQgC99gk3ay5SoRlmNZcBiAIAv+wKQiCzWYrKytbvnw5ayEK6QvNQCQSWbNmTWVlZVZWFn0zJ3EaDU7iCjQQMuQkTmOVCPN14gpEOIm73e6SkpIlS5ZYLBYFOO27jEaj69atq6mpycjIICVwEidQaOoW3O2exoqTOI1GIsxJXIHIr5zE09LSiouL582bh5hZFIi15TIzM7O8vBzWHcL9nMRp3LgmrkCDa+I0IEKKtmnu7EPQ1DTjINbne8Xtft68eUuWLAmFQqTVtysQDocrKiq2bt0K6w45idPAchJXoMFJnAaEk3grNPDZ8mu2iUuSVFpaWl5enpaW1gqy23cRj8e3bNmydevWWCzGSZzGFR+W3JxCY8XNKTQaiTA3pygQ+XWaU1wuV1lZ2caNGxF3JAVQ7bvMzMzctGnT9u3bc3Jy+PFsBENO4gQKTVLiJE5jlQhzElcg8iskcZfLVVJSsmjRIharKiBK8TInJ2fLli1VVVV9+vRRLQqfpZDKetiAyYvlvwoD3u12q8rFp0Nb5LJqxQ9KVgCeio0XHx6CIKSlpZlMJoVEuATPFdUkuvc70GPTbDaruiFpOuwhDk64q5gkSX6/n+UShrts4SXjqZIkBQIBVrU1fedgSb8qVppyEY9NvL24b2Rb5KpWGNxPWF0Aqbj/Gz484vF4WVnZJ598Eg6HWYP7tsfH4/Ft27ZVV1d37tw5udU4zuBUiXQx3l6z2ezz+ZKFQgzSTSnKtVgs7fbYTMWPVNNjkzXLYDwjqXg3aXpsIiUjvaA5HcBj02azqXYxPlOIXMxjMxUPRq/XazKZVN2QcJc83EkJcVEDWYjHpiiKrCrB/gaptBfx2MTlpuixGQgEWH53uFzYaIKVVxNnxFMUd1HD5YLrLKtWBoNhyZIlq1atYm0nctvpmxSYnZ29Y8cOWD+uGNUd2l7cYxPxFdTE2WQyITibzWa3261oKblE5MJ4hg1wyP10AJeboscmIhfvplQ8NvHJgss1GAxOp7N9HptE7p322NR02EvlzeUXeSgE8uH7V/VhMy0tbf78+WvXrkWMD4RzOyKQmZlZUVEB9nG6fNxwgadycwqN5C/4eDbEcpWenp6qOUUBIrnEyRT5AA0lcI9NgqTmUj/usUmwAmtsMk17PJ5Zs2YtW7bM4XDQN9/hcG5ubkVFRU1NDe2Xjxs9OYnTfYTPhV8widMgKMK3wSauKJFcchInUNDfEOhIOszP2CRo3Pa9U2Bnq8WLF3fEenBS7TYGcnJyKpp/ubm5kIWTuAI6RMPjJK7A6vZ82EwuFGI4idPIaK6K4SRO4LrtJP7JJ5+sW7fubmBwaGMsFqutra2oqAA/IE7ipOshwEmcBgQfHpzEaaxawtxjk4CCaz34x4m7xGPTbDbPmzevoqIicZyxQc7v1s2TZjbagyNeeW/0wM4mvaCzOjs/8njPTJfuZrNdoYxumWFZNITHfDD1pSdatOWbqc3/yzaH+s9usxhb3ZnYsr/g4VfefbaTLLZKyMrKqqys3LZtW3Z2NnwVb5VMXXBzCgWGgI9Jbk6hsRKEhOcjbmuFD2Z3+sMmy+hJao+/AWhqxJzECZL4hLn7Sdzr9QKDG43N1BrtX1jb1Ljseb89/NTMms/2TOodkjMHvrHzeOPMp+63Q7P1zhHvrvq8cVF2xNn9kyOfrS55kMBxMyCbxm3cf+BAw/799fv3Nxw8uP9gIpAIH6irXjS65TZTmtvrD/j9gfwXCyu+Prutd05m86U3XTbCAyMrK+tHp3w4D6ilhjdF0P9zEqfRwMckJ3EaK07iCjQSlzCAVBKao1J8eHBzCgE2dXOKwWDw+/3z5s1bs2YNnPCQHoo/Pe6DRbtO/eUPV7Z+9NGijTXffne1ct7s1Y3Xf//l4TVlb4/JCEqCYAv1nll95cujyz6c8Hrxnis3juya8+pvftP89+KYIbnNK8sttnlf/OVaw4aZM4tnzjx4+W/fXdha3ByuPPG7b49/0NKMgR/MWbW1YuvWiq2VB0//8S/fn6ipar5c+XGfri0PDEHIzc3dunXrtm3bunTpQpqvCHASpwHhJE6jAWH+YVOJCdfECSL4hLmbNfH09PSlS5du3LgxGo1Cc7IHPrHvwuW5MyY9q/Ir3LzrdO3Qvja9qduTs09/96dvr35x+eLlr7792z/+8sfrFy9fbv47Vbf46YGJwiy2ueeu731ncHPBhZXfnih/DGSMmH326pGbJP6b2vPfHVjaWti7hZvOXmoYPdwL9zf/G4vFqqurt23blpeXR0X/FOQk/hMWNxUpZL2dLMvI0XqpaFq4bmE2m5FNeFKUi7yo3R6beEZGRmZmZk5OTm5ubk5OTkbzLzMzM6/5l52dHY1GMzIyotEouSfa/IvH4yQGcpF7srOz8/LyMjMzSUxyyTk5OVByRkZGbvMPYjIzM3/8cJSdnQ2RpGQSE4/HIZJIJzXMzs7u2rVrXl4eKZnck5mZmZGRQdeZzpWbm5uXlxeLxRQlQ65oNJqbm5ufn5+bm6vIlZOTA/fk5eUpZEWj0aysLGjFjyZUKBlaQXJlZGTk5OTk5eXl5uYSWSRXNBrNbP6RXKSGBI3OnTtDySQXuScrK6tTp065ubl0DNQHYgjOOTk5invy8vIIzvF4nM6VkZGRlZXVrVu33Nxcco9CeiwWU80F5ZBBlXxPPB7v06fPunXr6urqaK/6rP6P7z1x+LHJUz8umT2nbA78zS2bW1b88ci+oz4orasYcr83rcvchiuN8ycPTYjPfnz1qc8rl7zwI8s2/6IRn92c4BOLbd71//n7766fT/x++Ov//vdfvm4Onv/6D3/9oeknEj/31aoXdK1+sQcm7jlV15rEBUHIzs6uqanZtWvX4MGDoS9isRjp92g0SqNBRkJmZibcQwZVLBaDIUTfk5eX16VLl6ysLBh4pOTs7GyYuVlZWZALYiASxjOZYmSCk3tisRiMZ9IXMMhzc3MhJjMzMz8/nwxpaBcphwwqOhe5ByYLmfL0PYAGKYfcQ2JgHkFRitFCSCk3NxduoOkFZgrBkLSLlEyGK8lF7olGo3l5eZ07dyaIRaNRMulgGtK5yFSFewh10LngHiA3QFKRi/Q7YQAFLdCkREomREGXnLCJm0ymcDj8oy9DJBKBx6bRaIxGo/F43O/3w/k+oihCY8ghh3a7PRQKZWZmhsNhWNgriiKMoUAgEAwG4fFFSobHryzLkUgkFouFQiFychCUDFkkSTKbzcFgEHoF6iOKIsREIhGr1QqRIAtOzgX7USAQ6NSpU2ZmJnwN0Ov1UMNQKCTLsk6nM5vNEJORkUHa5ff7QRY5VQDqHA6HYRE+HO0Yj8czMzMhF7zvA2Jwj8/ni0QidIzBYPD5fPBMstlsOp1Or9eDrEgkQmQFAoEfvbqj0SiR5fF4oD7g2yaKIslF2u71euEe0FX1ej3kikajpGSfzwd0ALl0Op3b7YZcZrNZp9PBuZEwthJfDpt/UE4sFoMV2Tqdzul0Qi4i3e12w8PDbm8xLbhcLrjHZrPp9XqTyURiku9xu90wYEjJIEuv1/fs2bOmpmb//v1QGeW/Q19atm5L5daqnbsOfHr28o0f/uP6Z3s/fro3DAh771dWbFjwwoMZTqfT6fYMWnTs3Ma5TyYunE5nut1qMjQXZ7HNvfBt04K3hw9/ZPjwJQd+f2HH+480h3+7/vJ1WhP/tnH11KlF1F/Zsj1nL9YnkbggCD/Ogq1bt+7ZswfWHdpsNhjSHo8HNHG73Q4xbrcbJoLFYgHEgsEgoGGz2WBIkxPmLBZLPB7Pz88niJnNZsgFe+aIopienq7IZTKZYNSBNy9McDIxAVKQHovFiBlQkiQoGWKMRuOPm/HCkCbrgmRZhnJCoRAMV1EUIVcgEIBWmEymSCTy4waQoVAIWipJErTd7/cbjUa5+Qclk70TZFmGiZmZmelyueBwelIyTDqj0Qglk8M64GjszMxMwjayLIMsQi9GoxGoIxqNwrAXRREmeDAYNDZ/btHr9fCEiEQiQB2wkQZMZ+IQT9CQZRlON4OS4/E4xIiiGAgEgBIhRhCESCTy4+eTcDhM7iGEA7LILCCEIwgClByLxczmhOoBm2iCWgx1FgQhFArF4/FIJMI/bLYQRSpvTPyMTZpt8fdWeHjAhKdz6XS6vLy88vLy6upqLa/6tPsfLdxxoKFqSdGwLq1OtU+PZI+bvmDF8hUrVqysOvb17y5/WrN8ReJy2eKpLz0GGkqCxL87+cnbgwcPGjx4+f4fLuz8YFBz+MP1X3x1tEUTD75V98W3Z1a1/m2tPfb11b1PDaPNKaQJubm5Px7OWV1drTjXjZtTCEQCN6fQWNwMc5v4TSRu/s9t4jeR0FjOxSJTyH7nlxj6/f7NmzdXVVXRzpA322KKd3lx+idLbv7K9x669sON07XlK2/GLCl5K9ciC1Z34OFnXh33xrhx496aue/aN0f3fvLGuMTl66+NGdTL01ycJbzg2t//dPFoY+OhxsYLv//Hf3x98lBzuOnLv/zu5ofNkUWffvPpb2+Kb/nf5u38yMiHM0PqO84121UqKioU5yxzEqdRxL/TCILAbeI0XHyJIY1GIgwDSBl785pr4jeRSPx/50m8pKTkwIEDxKBHV0YQDHZndq++/W7+Rk2Ze+BMXfGzj9+M6NevoFOaCOYSyKk3sJYYWl/bcr2p6t0ezb8lDT+c3/kOhN9be+WmJt7p7QXXL+1hrjhpXTn66sePLjt27Jg/fz7ZHoCTOI0PJ3EaDQhzTVyJCdfECSL4hLl7NHFRFF988cWmpiayFoU0gREIjRpXeXD981mgWt+8SWe2uz03fz7/Q0uPn980b+TNCI/HnW4xGQy2idUXjq8clzC7CoKgtjpFJ3eftOr4ldp3iQPRTQlt+j8nJ6e2tnbixIlgzeQkTqOGj0muidNYwXc+sJsr4uGSOM1wm3gLPlwTpwfKndTEe/fuvWvXrgEDBtAVYIVDPQY++cRvSpcdPrL22XjrwxLSRhfvOHDoUMvf4U8vfvfHb6+e/Clm98qxTwx4YPKRSxcLH7tpSU+Q+Maxvrwhj48aVVpz9UrDq4I565EPG84dnz0ik1UHzfgHHnhg+/btDz/8MHygMxqN8IkvOSOQWvIXAnKnKIr8UAiCRiqTFP9Uc28vMSQAKQI4Xsj2CFAO38WQ4IlrHzqdDn/YkjU8pEA6cK+f7GMymWbMmDFp0iRJkuh2scJdx07bvGXLmsVlbz2Wl9baOG3uM/r9SR9/zPz77Sv9ew4Y+MrMKc/+dKzygKfefXX04Kxh70+bVVJS9NEbo6KCI7//S5PeesaX1rwgkVUPNF6W5enTp2/atAmWJHESJ2jhc4Fr4gQoCHCbuAIQbhNvBchdYk7p0qXLtm3bBg8ezNJVW1VaEHQWZyAYcNkttAFccQ96abbaks0kBkkS9fqb+UTRaDAk33QzuU3/9+vX7/z587DwjpM4gYyTOIGCBH42mzicG4JMPJYmDtyB6J74GwCYgRC5Xq+XpbrCACLYKQIpyiXrbRXFwgs1rFJPToLPrawKky1wkfb6/X5WKv7+iJM4fhKuIAiBQEC1OZrtBRsxMSA8//zzGzduREpjSbnL40VR3L1796uvvqpor6LaMCYJGopUsIpqmlNUB0CKtnij0QjrtZOrpNPpYOl0chLEADmopmq212QyOZ1OVt62TFLVvJrDEjGnQHs1JylLLuyPptpHkIV1KATM0LbIvQ/W3if/a2r+JceTGJPJRMLJAb/fb7Vak+NlWcYz4qma2QOBgMViUZWL58XlaqIRDAbNZnM75LKyQLymXPBjYhWi2SgkI54XnBeQ7KwkRS+89tprP564hng8/zQ3jCZHul2v1wmCzmhxpJuanXcMosXns1u0TDE6vWRzmGUV9V1nENP8fge7BJvTGwmYE2Jv8bdq1aoJEyYo2psMC46z1Wr1+/3JuSAGHx54yXiqzWbz+Xztk4s3GZdrt9u9Xm9HyMVr5XA4PB4PIpeVBPF4o/BUj8fjcDhUy8czkt6/T8f4wUOPkagjmjjrBtDEVVPhHDzVJPLQY6USTZx1A2jiqqlEM1VN1WyvJEmqGSHS5/MZDAbVG0CuXq9XTdXpEmCykkDlYaXqdDrQxFVvwOWCpsaqsybOgUBAVShYgeHNQ/UGoplC6ssvv9xWEu8x9L3Ct51pFsGQ3uuJd2e9/VzQLlv8vd9ZvPilwbkJFjeaMka8OmHChAlvvtC/36jxidDbYx/t7LIIgjW96/gPHusXE4Rwj/4PDR82vPnvod7ZNpsv9N7CpWMeVNuztpm1h770/prZvayt7e9t4fNVq1a9+eabivYmYyLLMjI2JEnyeDzJuSAG6SZQAFkl42MD9GWXy8WSiw9LpFaackETR+QikwWRqzksQRPvCLlEE2cVnp6eDq6kyTcYjca2tJevTmmZj6m8qXGPTZrUYKKy3h8VZpxnn3129erV9DYpdFGtwiPf2Xm8JhJ0WzP7PD15xf59m14bNeypjzZ92lRX+NyDLpssONxDa07WHj7YeOnE3NKDNy6f2bfqaFPl6y9NGPfW67FHK+omvfSAIDy7uv7Mlc+vXPn8ytUvztd8nB/JfnX/ZwffGvXTWpTM7v3e+3jmzJKWv6r9J789v2le6U8xk16B3bNa1S75Yvv27S+99FKKZg2+OoUGNpVJig9LxJwCRq22mDXoqpIwDABymRz42WzifHWKojMQmzjoNQipIV8ING3T9/rqlF69epWXl3fu3FmBp8olkHhGuNf0HacvXjh35sz5z69ePPf5pfMXLx2u7N8zS3C4H9q6b9qqZauPHpxTevDSwZoFL248uOX1GZW7dq3LvUnirlhel25du3Xr+sz8zScPz+uR+9aOG3+6caKhtrqyurqiYtEHLzw96Mml62tqqmpqavYcO3vjr//vf/7ff//33767WFfVHFlVs6roKZXqtY6KxWKXLl2KxWKcxGlg8LnAV6fQWPF14go0EpcwgFQSmqNSechzTZxGFVd5FJr4jx8wFi1a9OabbyJPMkGw9Ro068DlP/7X3//y5aWmXdsOnfvizL6Vr21tOrFn9pDVDRcvHd4+uG8+i8RnVu3ZU553k8QNZpvdkeZwpPX7ePnhg/OGzTt+46umHYtnlS7eefrPN05Mf35oRBB0oskdjr+27NCFE9U7G+pP1c5YW3e6acf8Z/pFXRZZ0z6u1+vHjx+/efNmvsSQHhhkDrIUGk7iCrj4EkMFIJzEWwGiINNWaXfW7X748OHr169HzlUQBL0tPdrj3XlHT+0dMfLR5xcfPFC7Y8uKZTsuXj+8esOy8rVbqqsH90W322EAACAASURBVM2Xez889eBnW/bs2nfx7LaKs9+eP7Z9/oGz+0oX7DpKkXj+Kx/PWbZ82bLlGw+fu3KmpvHbv//x85q5Dzulp8q2f3FgvkMwukLdho59r3zfyWM1C57rF3/uvVkN5QN8vj4fLas4dfLgqinvPNm/kwIuxWV+fn51dfWrr77KnX0UyHBNXAHI7dlPPLlQiME1U25OUeDGzSkEkFvSxAVBcDgcpaWl1dXViGkoUfhNc0rvGbtPHjlUW1F56OzlU3t3bKuuPdJQ2b9XVvqERWcuf3f984u/+/6b8+e++dsfr50/d/Wbi3VrD1za+5Mm/sSWM9+f2fPb5t/HS2uPf7Zjzr6jO18b+WRZ7bljSwcLgqnT8Dc2bK9eVH2ooWr57Jmzt+w4eO7o+vllpYtXr925pqpmU83GKQ+RxiYHAoHAypUrFy5cCEsDuTmFhoiTOI0GhLlNXIkJ3zuFIIJPmLtHExcEwev1bt++fcGCBaTyKoGbHzZtPYa+tWTTztqdN/8ql49/JmY1GbN7Ttx1YumWDdWnjq1YfuxqU93aSduP1U6aU3uA0sSf2Pzp15smQ/GSJ96pS4/8t6qPV9QeOH3p/PzmjQ5N6e6seEbab8q/Or/7o8EPPgh/j476aPf5kzMmDg1kZHqZKxp/9OuZO3duTU1NTk4OGA04idNdiY9Jbk6hseI2cQUaiUsYQCoJzVH4mwesXmLl5TZxGplb1cQhbyQSOXz4cElJCZw2QBeY6Du9wfT0b/ee2vPih9Ofe/v+t+tPHdtXu3nj5s0bK/c1NjW8/1KeIJid3oUHTk1buSTxYXPOwRPbV7/c/GGzpGLnjjXkw2YLiesNki0tPd0mCjrHgDHLL//lf749VBRJS2z2Dz/di6v//Pc/XT5x6hT8nfzsix/++NmMCb1u3pD8v8lkmjJlyr59+/Ly8ojZl5M4DRQncRoNCN8GTTx5cSLEaC4FBWdiVnaPx6N6A8xw1vJkUA+RFdma69PbvU68jUsyWe31+/2sRkGTkRW7yFJQvBd0Oh04dqvWSlMusmAfX3Kr0+mCwaCqULIgF2kvS+6PR5HV1dVNmzaNHE50c8RLwZxHCzfUX7xy6djOLePfG/3uwbMnDuxoJvFtB46ePjjxlXxBsDp9qw80Tl7wcYLEN505sXnOI80kPnbCW+NeJUsMn9h8+tu6ZQNHv/be2u17N07NNZk9j46fe+b3/3Fh01vdPD+p2LoXVl49t3tKy4ry4cOffPrjPeeait/pebNOiv+dTmdRUVFDQ0MsFqORact6bdbIgemArBNHhkdb5LL6CKgWDiGi20LCiFzwe1Cd+5pjQ6fTpbhOnCUXdihCluRbLJb09HTSQEUAJwdJktotV6fTtXudOOmF+yCU/C84CyXHQwwcs8RKlSTJ7/dbLBbVG0wmk9FoVE2SJClFuYFAwGw2I4UjSbIss1I12xsMBpHsJpOpfSWDHxcrryRJoVAIB5OV12g0Ih2hKRdOxVMtHEpWTYLhjsjt1avX3r17Z8yY0ZoizbndXy2aOf2NMUMyZEnIKVAl8TTPo3uPb3/zo2dXHz248fDXu+eOBhLvEhQEV7BldUrWGw3X/vKnq2cO79o0Z8rbI0b1Gztx4eFPmzZv3Nr42YUds8f1ilgEiyOYldvp+ckbqqqrW/1tWTLh1aGdcjNcP3E91NPlchUVFdXU1PTq1UvRcBxnGPBID1osFr/fryiTXCLd1Ba5pJzkgNVq9fl8yfEQg8iVJAl8I1l5kbkgSZLNZvN4PKy8qcjFh6Xdbgf/RFXRsiwjfYS3F5cLzlx2uz0VuffpGT9j84+RqIfZyEqFIx/huae4x2AwyLIsiqIinlwCWORSEdCUCyNPkQsuQbRqErzzSpLEStWUC4eRqmY3GAwmk8lgMLBScblIql6vDwQCSMm4XKQjYEipVhgi4WRI1RsAZ6RWiFyDwdCtW7eGhgYFj7f6kM4g8YLXt5w6s3NRZf2XV86d//armumf7D5x/kDRc9lZT5Su39ZwrunDF/sIgcenzvjtyIcHd415TWLO2Nm1ly8cmfvO8Egg1OXxKXVnPt+76LXODz88ZdPeI4ePMP72LHyl1b4xVqu1qKiosrKyT58+yQNbFEVZlnE0WKkwLL1eryrOej02DVOUazKZ4GBPVdH48EAmCz4X9Hq92Wx2uVyqQlOcpDggFovF6XTeebl6vd7pdFosFlXRbSRD7rHZovNxmzit/N7J/cRpuQnn+eZDuhsbG0tKStQXj6d5u494qm9Bvj/xi/a8/8kne+WnC4LNF+nZq1sgEs+OZWb269PdFY5nx0MOq2jMGf3auGee6JdulwVBtlqJ4dvUqf+DfaNBOxyhbLAEMu4v6OE22+2+jHh2VjbjLxZyiqTOer2+sLCwvr6+R48eqvtYcZs4wYp8lyIfDOgkCPPj2WhM+DpxGo1EmH/YpBG5q1an0BUzGo16vT4SiezevbukpMRqhbPs6VvulnBaWlpRUdGBAwdycnJYdeIkTiPDP2zSaED4NnzYTC4UYnDNtNXrrVoRrK1oQdVS1VnaIldzlQhfYkh6A58wdzmJC4KQn5+/ffv24uJidX2ctPNnCrjd7mnTpu3cuTMvL89oNLJqwUmcRgYfk3yJIY0VX2KoQCNxyTVxGpS7n8SBx2tra0tKSuia3w3htLS0adOmbd26tVevXrAOhFUrTuI0MpzEaTQgzDVxJSZcEyeI4BPmniBxQRAikUh9ff3MmTNJu372gMFgAB28V69e8D2Ka+J0pyCv6fiY5Jo4DSPXxBVoJC65Jk6Dcq+QOJwitH379hkzZiStH6cbdIfCsBZl37592dnZIBJ0bZZ4ronTyHASp9GAMNfElZhwTZwggk+Ye4jEBUGIx+OVlZXTpk0zm9t/fjFBpt0BsIPX1dVFo1FSCCdxAgUEuCZOA4IPD74BFo1VS5iTOAHll0TigiDk5uZWVFQo1o+Txt6BgMvlmjZtWkVFRbdu3Whx+CzlmjiNFT4muTmFxuoWzCng1JP8LzhHJcdDDDgpsVKNRiN4bKreAD6ZqkngGAn+Uao3aMoFj03VvMSHTTU1lVoZjcZgMAiOiKzCVeMhEm8vkmo0GuGMTVbhSJUADVbheO8bjcZwOMwSiuPcllRWrXJzc3ft2jVr1izFWL8Dl2azedq0adXV1X379lWgqjkmFfcrcMNTwWNTkYVcIt2UYq3AY5MIUgQQuTCFkUYhSUajETw2FeLIZSpycUAcDofb7SaCFAFNuawRq4mG0Wj0eDx2u10hES7bSEpMj03cKQv2MEE8zeDU0WQ3JE2PTVwu4gwGsrxeLyw0ZolOjoeYNjpHsbLfnR6buK8g7Aih2iK8F/R6fSoem7B3iqpczeHRo0ePmpqaGTNmIN8SbzunG43GoqKi+vr6rl27tsMnU7O9yDySZdnj8ahiBR6bLIdefIbiXrV6vT4Vj00QrVrnn9FjE28y7J2iWmd4l2LhjPeCXq/HPUU1PTaTxxupJJmk3GOzZcrj6+I116fz/cQJdbZvF0OSHZ7B5FIRCAQC4XB48+bN06ZNuzN+QE6nc/r06fv37+/VS30HQ25OUfQRt4nTgODDg9vEaaxawtwmTkDB7Y/31odN0qhAILFvSVZW1saNG2fMmIE4cJMsqQTcbvf06dNramo6d+7MOs0Zn6WQyqon9BHi+8YPSqa7LxVNC9ct+EHJNM4tYe6xSUDRJFPEI/EXf1AyQYkENDVxuDMWi23cuLFD1487HI7p06eDR48oipzESR/hw5Jr4gQocj4fHaMI8yWGCkAErokTRDQfHghd/rwbYCGaKWji0EaPx1NTU9Nx3zmnT5++Z88e2NnKYDBwEidDi5M4gUIQBNzWir+ocXMKjWRLmJM4AeUXT+KCILjd7vXr18+cOdNms5GGpx5wOBzFxcX79+/PyMiA0jiJ06hyElegIUnKLebJDZzECRQtAfyhJwhcE/8JsV8DiQuCEI1G165dO23aNFkme8z+BEI7Qh6PB3RwwuCCIHASp5HkJK5Ag5M4DYiQyrcLTuI0lL8SEhcEITMzc82aNbfFPg5rUbZs2dK9e3caTE7iNBqcxBVocBKnAeEk3goNfLYIguD3+1tloC5+PSQO+6uUl5eXlpZSANxyUJbl4uLi6urqnj17KuzynMRpNPFhyT9s0ljdCXMK9Efyv6bmX3I8xMiybDabWanwKd9kMiXfIEmSxWIBN5PkVFEUzWazasY2yvX7/XD6V3LhkiRZrdbkeIgxm82sjKIomkwmvL2BQIDVKJALbxjJ0uFMwuR4iMF7QRTFYDDIyqsp12w2s+oM7m2skkVRDIVCrFSj0QjHq6reIEkSIldzeCByA4HAhg0bZs2a1b79Vcxmc3Fx8b59+zp37pzcWbIsgz9XcqPw9hqNRjj0NTkj2Abx6WAymXw+n2peGJasyaIp12q1JjeTCDKbzR6Ph1wqAviwRMgBH5OiKFqtVrfbrRBHLtstF/yPkGFps9lcLhcRpAikQg748BBF0eVysXhJUy70/n1Bxi/c/GMkBkOhUCQSYaUGg8GsrKwfnTJUb4hEIqFQSDUpGAxGIhFWxmAwiNcqGAxmZ2cjhWdkZNxtcqFRrFpptjcnJ4eVNxgMIu0FqFlYacrNzc1F5CJjA0YOSy5eq2AwiMgNhUIFBQXl5eVFRUW36gfkcrmKi4vr6up69+6t2q5QKJSdnc1KSrG9qsVCZDgczsrKYt2AdJPmDNUcG+2TC+MZAURTbjweb0d7NeXigGRkZMRisTsvNxgMxmIxFiY4VZLe5x6bLa8+KdriuccmeYXEvSpwJyPNg5/oJYZEIgRAbjQaXb58+S3Zx91uN1hRunTpoiiTXHJzCoECFtWJ4k8HjdJJ8BGYZSPGTXx8AywFkvyMTQUgfD/xVoDgZHpPrBNv1R5BIA+PUCi0dOnSsrIyhGhIXpvNVlxcXFFR8cADDyD3cxIniHESp6Hg68QVaCQuU9SI+Tpxgimu9fyCSVwQhPT09IULFy5btgz58AuDbf78+bW1tZ06dTKbzYqPmQRJvsSQhoKTeDIarDcP7rGpwCpxydeJK0BBSOrXTOKCIJjN5vfff7+8vLxv375Op5PGTafTpaWl9ezZ85NPPikqKpJlGX+kcRKn0eMknowGJ/FWmHBNnIYDvpLTMYowJ3ECCDGnkBir1frqq6+uWLFiwYIFTz/99AMPPFBQUNC7d++nn3569uzZa9euff3110H75iROQIOA0Wh0uVyKSHKJD0u+xJAAxTVxGoqWMNfEFaBwEieAJJM46OPdunV79dVXy8vLq6qqtjT/VqxY8dZbbxUUFBAnT07iBEYIcBKnAUlFs7wT68TputJhvN7IwxYK4bsYEjA1zRp8F0OCVeqrU1Q3fdXr9aFQqGvXrvn5+bm5uYFAQPH+y0mc7gLoBa6JE0xwMsQ1yztB4jrGD46NYCTqyOEdrBs8Ho/RaExOBXXJYDAkJ0FMW+Sy8up0Oq/XK4qi6g1EU1NNBbcX1SSdTofXSqfT+Xw+VqNArl6vVy0czv5QTWqL3EAggJQsyzKSCifOqIqGcamaBJHBYJCVCkeotE+u5vD4ueSC/5pqk/H2GgwG2C1SNa9me+H4LtW8+PBoi1xWH4Ha4Xa72yFXp2shB9W8+FzQ6XQmk8npdKrmxduLy9XpdHg3wck+LLmpkAMuV6fTpaenm83mZNHA/iw2o9G4T/Vst9TPurznzthM5Ri9e/SMTaTJSBIMGOSMTfwwQ82hhZ8r2G650CLkgEdcrtlsBqfc5PmCt1cTSVxuKmdsIgc/ap50muIZm4hopAuMRqPdbgf9LxlnzZGDQ413E37GJt5Hqci9PWdsklcGRQB5g6Afeopc5JJlToH3VsSAoClXkiTVV2YQDZo4qQYdAC2AjqHDKcoFTZwukIRBLqvOACa5mQ7QD1s6ng77/X5WybhceM6zOgK+XLFKhr1K6GrQ4bbIZS3m0xwems4+rDrr9Xq73T58+HDVTWtB92ShAesxWPuJg86LyEX2bQe5LDRgEaTb7abhJWEYOazpQDRxcj8d0JSL2MQ1hyViXtCUC5o4XVUSBrmgmZJIOoDIhQ+MsAyJzkLCyMk+KcrFhwcsh1XdKALmQlvayz02W/oRIfG2LG3kHptkPuAkrml9RigvlYeHTqcbPHjwsWPH+vXrR6pKApq14s4+BCu+xJCGQpMc7oRNXFEhcomTGv+wSYCCACdxAsjdSeJ2u33BggX/+7//u2vXrmTNl5M46T4IIJo4J3EFVppvAEajUZGFvuTHs9FoJMLcY5MgAq+urNd8nLbuabd7ggAdGDRo0LVr1/71r3/94x//GDx4MJ0kCIktGfA3AK6J04jxdeIKNBSLnehUronTaCTC+EOPkziNFydxgobFYpk/f/7//d///fvf//7nP/9ZVVWl2OaQkzjBCgJcE6cBwc0SOClxEqeRTIRxvDiJ03hxEidodO3a9Q9/+MO//vWvf//73//617++/fbbESNGkFSuidNQQJiTOI0JJ3EajUQYf29NBS9O4jTWnMQJGsuXL/8/6vfPf/5z3bp1aWlp5AauiRMoIMBJnAYkFVLimjiNZCLMNXEFItztngDC+qDarVu3v/3tb19//XVdXd3Fixerq6tv3LjxzTffjBkzhnww4CROYIQAJ3EakLudxJM9hSDGaDTCElTVGzrOYxORC86NoMir1go8NlnVJpNcNS8uFzw2EQ83OLtLtWSQy8qr1+uRCmvK7VCPTVaddTpduz0nYdks7t3KSm2HXJPJNHny5BUrVjz44IO9e/eur6+PxWIDBw5cunTppEmT0tPTocugjxC5kiT5fD7V/sVd8lJsL+KxCSNHkiTVbmqLXNWM0EZZllkem7hcWFWt6q2t0+nwuaDT6cxms8vlUsU5FbmpeGyCKi2KIgsuSZJY7dWUq9PpnE6nxWJJbnLb5TI9NuE4O1W/KYhEnLKMRiPusYkUiztHgdcWkj0QCMARjqr3IN5iuFzcKevn9dhUbSlEIu0Fnz1WJ2q2F/Gc1PQGxKHG63yrcu12e+/evdPS0oxGY48ePRoaGuLxuNFodDqd3bt3/3HbcYIeLhfx2MTbizsK4nnheEa/308qqQgg3ZSi3BQ9NhEwkSSj0Wiz2VLx2MQLR1Jxj03WNIHuSBFqj8djt9sVPUtKVo2HSELR9yU/ASAG3y3kZ9HEiaco65HYQZo4cVFD5Pr9fpYeh2sfyN4pmqqHTqf7RWriyH4RqbwBdOvWrb6+PiMjI3nM/1I1cdaI1WxvKpo4kEMyyG3UxFl7p5DpoFoy/gagqREje6cQjbgj5IImnureKbTphw7jZiDu7ENjJQgCd/YhgABBEHMziYeApvUZ/+7dbrd7nU4HJB6JRBRV4qtTkgHhNnEaE5wM8Q91/MMmjWQijOPFV6fQePHVKQo0OIkTQPCxwbeiJUBBgJO4AhC+xLAVIPCi1yqKusBd4wRB4KtTCFqabwCcxAlWnMQJFBBANsBK8eBfrokroOaauBIQTuIEEU7iBApyKhhi1EK29OOaOI0kJ3EFGolL3OiZypsLN6fQcOPaFm6b/uXtncJt4m0fG5zEaaw4iSvQSFxyEqdB4eYUGg3N4cE/bNJwIZ+I4C2ea+IELvxFjZtTCFA/BViHQmjOUq6J/wRi84dcURTpGEWYm1MIIPgs5Zo4AQpW43BzCg0IJ3EajZYwJ3ECiqZZAz9QhpM4QTLFQyH4h02CJD4muTmFAAWBVDTLO/FhE5y+kv8Fd6DkeBIDfnfkUhHw+/1Wq1URCZd4xhTlBgIBi8WiKhccq5AkpGKatQoGg2azGSmclYTHa8oNh8NICUiLcDQ0U+9FueCxmZWVpYoYjpXFYgkEAqoZNbHCS8ZTrVar3+9H5CLZkSTNOttsNp/P1z65eOF4rex2u9frbZ9czcmCiHY4HB6PB5HLSoLGIiXjaMiy7PF4HA6HavmaxcINd53HJjz0WM5Rmp6iXq8X2YoEXiFVC8flau5h0hGn3RMXNZbf3c/osRkIBFRh1HSNA8UE8W41Go2sVGhv++QaDAbQxNvnsXkXnnaPDw/YO4U1csD0xEoFPb3de5ik4rGJnHZP2ssaAPCFgJWKb3GTisdmKnJvz2n3ihcHcom/QXCPTQIUBLjHJgFE0zaNf9nGU/mHTYIz7vvGP2zSQKVyUDJfnaJAMnGJz1L84YF8jgdJ/Hg2gjhu9+RLDAlQ3O2ehgLC3O2exiQVUroTNnG6rnQYrzfXxGms+N4pNBpcE1egAfuU0pEkDA/a5IObyQ2iKLrdbnKpCCA6DdfEFVjhw5KvTlHAlbjkq1MIKJoaMV+dQrDSfFHj5hQaK07ibUSDm1NooFrCXBNXgMJt4gQQXOXBzTicxAmMEOCaOA0Ibh5AHmmcxGkYW8KcxBWgcBIngHASJ1C0cQ8Tbk4hiMmynJ6eTi4VAU7iNCDkoXUfHUuHcbw4idNYcZs4jQYncQUa3CZOAMFNi4IgcBInWMGqGNzWKkmSIAicxFtAwx9a5KFHQ0yHuSZO0OAkTqDgmjgNRVvc/TmJ04hJktQmElf1FJJl2dr8Y6VaLBabzYY4FLE8Nk0mk91uR5wbbTYby9VTlmVNucFgkOWxCaJZLcLlWq1Wm83GyivLcigUYjXKZDI5HA4WViaTiVVhzV6QZTkcDiMl43JtNhurzhaLBekFWZYjkQgLDbPZbLfbkVohcjWHR7vlms3mgoKCffv2ZWdnJ9dcU67FYgkGg8kZZVnG22s2m5GZoinXarUinqLIJNWUi4wNWZZxj01ELpmkqljhc0GWZdxjE5eLT1K8m9LS0lgemyaTyWaz4ZMUIQdcrizLXq9X1WOzLXJhkt7nZfwCzT9Gotfv9weDQZ/Px7ohFosFAoHkVJ/PFwwG/X5/chLEaMoNBAKI3Hg8zirc5/OFQiGW3GAwqFphulaI3KysLFwuK6/P59OUy6qz1+vNyspCSg6FQkgq0hF4L3i93uzsbFatAOf2ydUcHrhcZEz6fL7BgwcfOnSoZ8+eyTUHuaw6e72JAR+Px5MzQhIiF58pOFZerzcQCMRiMVW5kMqaDinKDQaDmZmZuFwkNRgMqqZqtjcUCrHkwkzBJwtLrtfrxbs4FApFo1FWnQOBAGt2Qy8gcvGO8Hq90WhUlZc05wKZpNyc0vL6ws0p9Hsc30+cRkMQBIPB4PV6FZFwiXtztGW9Nv+wSYDl5hQCBbeJ01C0hOGjikpCcxQncRoZTuI0GpzEFWjgpwYiqx74h00FkoIgpKWlmUym5HhO4iqYcBKnQcHXa3MSp7HiJK5Ag5M4DQi+6gF/UeMkTiPZEuZ7pxBQcK2HkzgBiu+dQkMBYb53Co1JKq/pnMRpJBNh/KHHz9ik8eIkrkCDHwpBAMHHBj8UggAFAU7iCkD4LoatAOFnbLaCQ2uTS753Cg0XotO05YMq6wROTuI0yGCbRg7YQnqBOAooCqQvuU2cRiMR5uYUggiubXFzCgGKm1NoKCDMzSk0JlwTp9FIhPl+4jQiXBOn0dAcHlwTp+FCdECuidNA/cI3wDIwfsbmHyPRYDQaZVkWRZF1g9frNZlMyamiKMqyDO6kyalwphQc0JWcCsc+4XLhYMDkvLDcQrVKcLMsy7hco9GItDcQCLAaJYqiyWRi5YVGsSoMvcDKazAYgsEgK1VTLtIRmnJDoZBqnWF5Gd5eRK7m8MDlImNDFMXu3bs3NDRkZmYm11xTrizLfr8/OSO0F5ErSRKSCn3EGjkGg8FkMnm9XlW5MHJYw7Itclkjx2AwmM1meKlNFo3LhSksy3JyRjIHEbkWi8XtdrPy4sMSSEk1r2Y32Ww2l8ulmhfGBgtnnLI05RoMBpfLZbVak0UTuclJEANoGAyG+2C1UPK/BK/kJJpMVVPhQEKz2ayaCnNYNYkeH6o3kIeHaqooinCqrGqqJElALqqpKbY3EAhANycXDnLhjUw1lZVREw1RFIPBIFKyyWRCUpGOwNEQRTEUCiW3BWI024vIJWTKKhyXC3SpmleSJCDxWCymeoNmrfx+v2pGQpdIKtILSB8BxXu9XtWS8eEBtWq3XIvF4vF42iEXJwd8bIiiaLVa3W43Sy5oWqxUfNDi3QQkziq54+SKouhyuWw2m6roNsptv8cmsjcbcigEmGKRXV1g2Clehcgl8v4I9/zybOKwURlBQBHw+/2sz1Op2MRhSClk0ZepmDUQe5rm8Gi3XL1ej69OkWUZ8ZxEPDZBF2P1QlvMGohcSZLuwpN98EkK6ic9WkgYH5Owi6HT6ST3KwK4XJwc8H3ZOu5kH3x4CIKQnp6u6uyjORdIe9tP4ji58JN9yPjDBy63iROgIIBQvCAI7SZxnU6HkzguFyFxfCFwiiTOD4Wgh8e9SOL48ODOPnT/toR/eZo4srZJEAS/36+CQnOU5sMDoS3usalAlZM4DQj+opaiJs4PhSBQt3UrWpJBEcAfekg/QTlcEyd4apIpYlzCZwsncQKy5vIDronTWOFjkq8Tp7Hi68QVaCQuEQUwRbz4OnEabnyi8nXiCqzwYck1cRouXLdANDx8TPKTfWiQ+QZYCjQSlzCAVBKao/A3D/INgZWdn+xDkMG/IOEPD81nPLeJE5zxXSjaYotnfYzlmjgNcoqaJbeJK8Dke6coAeE2cYKI5sODf9gkWGlqxNxjk2B1D5C4nvEzGo2SJDES9bAalJWq1+vhrCPVG2Axr2oSPLUQuZIkwWsvK7vP52NlNxgMsIxMNS/eXk25sIhYtWSQazAYWKmsCuv1eqn5p5oRIgOBAFIy+FyoZoeVT6IoqqZqyg0Gg6oZ9Xo9jjMuF4iYVSu9Xp+K3O7du9fX10ejUdWaI1hBR8DLVnJeWNueHA8xMFNYfQTtRVKNRqPX62UVjnQTLhcfk3q93mQymAw/dwAAIABJREFUud3udsgFrFiTVFOu2Wx2uVwsualMUnxYWiwWp9PZEXLx4aHX651Op8ViURUNHiSqSTTO98EK+eR/Tc2/5HgSAwvRyaUi4Pf7LRaLIhIuTSaTajxJRW6Ag/uQ7IFAwGw2s25ASoYzIVkZNeUGg0G8cFbJ4L7EStWUGw6HkY5AqmQ0GpEmt0Uuq85QMp7a7jqHw2G8ZFaqLMs9evRoaGiIx+Oq9+BYmc1m8Oe61byyLOMl46kWi8Xv96sKhZHDQjJFuVar1efztUMu1AppFJJkNBrhjM2OkIsPS4fD4Xa72ydXkyrxJns8Hrvdriqa1blwM5F7n47xg4c8I1EHz3lWqk6n83g84A2UfA94tyfHQ0yKcsG9TbVw8rqtmgoPPdUknS7RXkmSWKk6nc7n8xkMBtUbQK5er1dNhcJZSTgaOp0uEAiw8uJy4aWHVWfN9gaDwY6QSxwcWIUjckHVYmUkzj4ZGRmq94AmrpoEfeT1elVTiTcHksrqfbyPdDqdJEkej0e1ZEhlDUuoVbvlyrLscrnaIRewYs19zfaaTCan04nIFUWRlYqTEj48zGZzeno6q2T4YIaksnoBvEBkWWbl1el06enpZrNZ9QaclAg5cGefFtsX/7BJGwH5OnEaDX6yjwINvjqFBgRf9cA/bNJYJcI4XnyJIY0X/vEKXyXCSZxGkpO4Ag1O4jQgOClxEqexSoRxvDiJ03hxElegwVenEEDwscGXGBKgIJDKazoncQWYnMSVgPAlhgQRsLey1j5zj00CFPGZYGHFSZzG6h5YYqioLrnEHz6IUxaUwN3uCZK41sM3wCJAQQD3nOTOPjRcyIspKIAsmsbHJCdxGmRO4go0Epf4LMUfHsioBUl8AyyCOD5RuU2cAMWPZ6OhgDB39qExSYWUuDmFRjIR5iSuQISbUwgg3JxCoCDn83JNnGCCD4+O20+ckzjpgpYAJ3EFIpzECSD4LOU2cQIUt4nTUED43iZx8M1L/hfcgZLjIQZPhQMJrVaranZwFFRNAjcz5AZNuYFAwGKxIIUjSanIDQaDZrMZKZyVBE1mpWq2NxwO49VmlZy63PaVjMvVTAUPVZZoBArisZmVlaWaHc9rsViCwaBqRs064yXjqVarFU4cVBWNDw+8ZDzVZrPBcbXtk4sUjiTJsgwem6pCAWckO44G3k0OhwN2ClEVjZeMp+JyZVn2eDwOhyMVuR3lsQk+rMluSPBywXIUBCe0djtl6XS6dntsgtkrucIQA28ArNRUPDb1+sRGNKySiVMW6wa/398+rzy8IzTb20GeonitcA9VsjmGKla4xyZo8ciwhGNjVUvGfSPxVJDL6kH4bnEvemyyPBg125uixyZLLvGcZEFtsVja7bGJTxZ8WHKPzeS3IoF/2CSg8A+bBAowIPB14gQQfGzw1SkEKAjwD5sKQPjqlFaA8CWGreDQWrzElxjScCGfiOCdhn/YJHDhn0zubZs4aaQigD98OmideLdu3ZYuXbp27do1a9bMnz+/X79+ilohoxbu5Jo4QQzXtvgSQwIUX2JIQwFhvsSQxgQhw6ysrFmzZq1bt27NmjWzZ8/u37+/4gR5eJrSpSnCaWlpqqfdw/p0/OxGkHVXbIDl9/vHjx+/d+/eCxcuzJw5c1zzb8aMGadPn96yZcvzzz9vs9mg5ZzEFSOAr04hgOCqFl+dQoDiq1NoKCB8q5q43W4fO3ZsRUXF8ePHp02bBpQ1derUxsbGHTt2jBs3jhz3/Ksg8UgksmrVqgMHDkycODEzM5N+AQwEAu+99159fX1hYWEwGOTrxJMHHydxggkncQIFXydOQwFhfHjcEolHo9HS0tJ9+/aNHz8+FArRstxu9zPPPFNfX19aWhqJREhH0Pcowve8Jp6Xl1deXr5+/frevXsbjUZF8+CFol+/fitXrtywYUNOTg7XxBUQcRIngOCzlGviBCiuidNQQLjtJN6pU6f169dXV1f36tUruRyI6datW1lZ2YoVKyKRyC9cE8/NzV25cmVhYSHytQoeZcFgsLi4uL6+Pjs7W2FyUuDIbeIEEG4TJ1Dw1Sk0FJzEFWgIgtBGEo/H45WVlfPnz8/NzU0uhMTodDq32/3222/v3bsXTu0hScmBe1UTNxgMnTp1Ki8vf+edd+x2e3LDkmOMRuPUqVP37dvXs2dPxNjPSZxAx0mcQMFJnIaCk7gCjTaSeCQSqaurmzFjhtvtTi4hOUYUxZdffvnIkSPhcJi2EivuvA0kbmH8HM0/RqLFbrenpaVZrVbWDcFg0OFwJKdardb09PSePXtWVFRMnDixjQwOzTabzUVFRVVVVf369bPb7cmFWyyWcDjMSgLRqrksFktaWppqhS0Wi9VqdTgceHsjkYjNZlMt3Gq1Op1OFlZWqxWpMPQCK6/FYsnIyGCl2my29PR0VqrVak1LS2PVuS1yFY11OBwZGRk9e/YcPHjwI488MnTo0CFqv6FDhz7yyCPDhg1TSxyCpw4ZMuTpp59WzThkyJBhw4YhcocNG/bGG2+cOnXq+eefTy5BU+7w4cNHjx6dnLEtcpFa0XIHDx7cu3fvWCxGd5nD4QiFQgqo4RKGpcPhoO8nd9psNmTEwlxg9T5Mh2AwSEqjA7hci6WFHOgsJIzPBfC4geN5SRYSgBHLaq/FYoFJSu5XBPDp4HQ6fT6fIgtcgtxu3brt2rVr1qxZTqdTwcL45fjx42tra7t3767aTXCGKpyVrJAOclnkAO0FyrrPxfh5m3+MRJfH4/H5fKxUl8sVjUa9Xq/qDcOHD9+zZ8/kyZPT0tLw9ienOp3OoqKiXbt2DRkyRLXwzMxMj8ejmuR2u/1+v2qSy+Xy+XysCrtcLhwNl8sVi8Xcbrdq4SAXSWVVuC1y4/G4qlCXy6Up1+fzsURrtlcht6CgYMqUKVu2bNm6deuGDRvW35W/jRs33s3V27Bhw5YtW7Zt2/bjIoc+ffpAt3q93mg0yupipJtghiKjzu/3s1JhOmRkZLRDrsuFkQM+Jl0ul9/vj0Qi7ZPr9XoRUgLRrJIDgQAid8iQIbt3754zZ86tMrggCCaT6Z133qmpqRk8eLAq4JFIhMVLyAylyeFOLzHs2bPnjh07pk2b5nA4kjm6LTEul6uoqKi+vj4zMzP5fm5OIZjcMXPKoEGD9uzZs3LlyhdffLGgoCAej0f479YRiMViPXr0eOKJJ1avXl1ZWTlixAhZlkVRRF7eke/83NmHTAQI4N+9EZt4bm5uZWVlaWkpsohAIUtxabfb33333R07dmRkZCiSBEG4DeaU5EIhBlnfDkcO4h8YVQ+F6Nat2+7du0tKStrxQKPrabVap06dun///pycHIWxiZM4AeoOkLher3/yySePHz/+xhtvOJ1O5FsFqRUPaCLgdDpHjx599OjRcePGmUwmTuIEMZyUkEcarI+AU+dJaXSAReLhcHj79u1lZWU+n4++/1bDZrP53XffPX78eHJv3kskXlBQcPDgweLi4nbr4DRwer2+qKho586dBQUFNHdwEicodTSJGwyGRx99tK6ubsSIEXq9nsjlgduCwMCBAz/99NMnn3wyedqT8hHa4po4QQkC7dDEMzIy6urqZs2aRZwNFWXe6uX48eMbGxu7dOlCq573DIn36tXr4MGDM2fOTFEHp1FLS0srKiraunVrQUEBAYWTOIGoo0k8EAisX7/+/fffN5vNRCgP3EYERowYsX///i5durDK5CROI4Og0Q5NPD8/v6qqasaMGbeLwcFXceLEidXV1QUFBUTvuTdIvG/fvocOHSopKSGuqDT0qYTdbndhYeGuXbtycnKgHE7iBM8OJfFgMDh69OjKyspwOEwk8sDtRUAUxc2bN3/44YesYhHa4pq4ArRb0sTz8vIqKipuL4NDfex2+8SJE2tra7t16wYx9wCJFxQUHDlypKys7LYzOEDgcDgKCwsPHDgA3zk5iZOx26EkHg6Hly9f/v7775N3ICKXB24jAo8//viOHTtcLpdqmZzEaVgQNG5JEw+Hw9u2bbu9ZgO6njabbfLkySdPnoQvpXc7iffv37+pqWn69Om3xQ5OA0GH9Xr9lClT6uvre/To4ff7aRM5fRuQGh1Dh1P5ZiIIgs/nI+9HdLGajhX36Fa0GRkZTU1Nffr0UTSWX95eBKLRaFVV1f33369aLEJbXBNXINZGTTwUCu3Zs6ekpIS1s6Ci2PZd6vX6d95558yZM127dnW5XCxZkiSx2IzeSKoDlxj279//9OnTM2bM6CAdnIbPYrEUFhZWVlY+9thjrGUznMRpxFLcirZz584XL15s96IruiY8jCDg8/nWrFnz2GOPqd7DSZyGBUGjjZp4VlZWdXV1cXGxKIp0yR0UBtXzscces1qtqiLaSuIi4yfLstFoZCSKRqNRlmXQXlXvGTFixJkzZ6ZPn34bv2SqtpNEulyuwsLC3bt39+rVS7VKkiSZTCbVJFEUU2xvIBBgwQVyWVhJksTKKIotOLPq/KPNNBgMIiWbTCYkFelBY/MPkdunT59z5861w12L9BcPtAUBj8ezYsWKMWPGqPYFMg0lSUL6Fx+ToihaLBY46VBVblsmi2pGTblWq9XtdrPytlsu8DsyHWw2W79+/SorK6dPn856pW5Lf93SPVardcqUKQ0NDQ8++GAyCUAPJscTcKD3RVG8z8D4wTRWTQREwBNB9YYHH3zw9OnTP+7jdUte9bfUftWbnU5nYWHh/v37s7OzkysmiqLJZEqOhxij0QjPveQbgEwBzeRUiPH7/Uh2eHio5gUwWUmETFVvMBgMwWBQFEXVVGgvkoo0WVNu7969OYmrDsLbG+nxeJYvXz5mzJjkLsaHJVEOkjMaDAZ8bBgMBrPZDJ+XkrPjcuG4GKPRmJyxLXItFovb7WblxYclNFk1L9QKoaz8/Pxdu3ZNnTrVYrHc3h7ES0tLSyssLDx27Fj37t0VNQfNEpQwRRJcEopuvzlFdedYnU7Xt2/fpqam4uLiO2BFSQbIZDJNnjx5//79nTt3VjxR71FzCss6BG33+/2sT4upfNiEp30yvCSmoKCAkzhBo+MCQOKjRo1SFYEYEDrUJg7Molol3BMQH5OCIMiyjPAGLhdBAzenhEIhsKKwbNOslt6WeJPJNHXq1LNnz3bp0kVBWW01p7DqgePFOp7tgQceaGpqKioqusM6ON0KSZKmTp26ffv2Pn360J8F7lESx81ziFUanzAp2sQ5idNDruPCdyeJ4894FjlofuT/WUg8IyOjurp61qxZCgLtuD5VLXnq1KlNTU2DBg2i5/vPQOL333//0aNHCwsLO3QtiioEisi0tLSpU6dWVFQUFBSQJE7iBAqYTkajkTVw4c2Xvl8R5iSuAKSDLjmJ08DimmU7NPHc3NytW7fOnDmT1vZoiXcsLMtycXHxvn37hgwZQnj8TpN43759GxsbCwsLb6ODUyoIulyuqVOn1tfXx+NxKIeTOI0n18RpNO7aMCdxumtuL4lnZ2cDg99hOzjdIjqcnp5eUlLS2Ng4cOBAiL+jJN6jR49Dhw7NmDEjFR2cZdul24mEk7PbbLYpU6YcOnQIeJyTOI0eJ3Eajbs2zEmc7prbSOLBYLCqquqmE6JOwR6Ky5Y6KO+iq9aecLIUu91eWlp6+fLlTp066XS6O0fiffr0OXz4cFFRkc1mM9gCWfGwQxYEhyeek5dP//LyYkGPKWH3cmZk50JK5y5du3fr3qPH/cMeHVcye9pTveOSDuAwpblDGVHVX9hnMSn2W3K4H/x45odDu6gst4TFmAUFBfC1lwV2KuPjV+jsw80prIF0e+M5idN4pjJJaWefYDBYX18/d+5c+JLpcI0snjfxoVxBsPlyOuV0zyv4aPK4HpnKZSrW30yfN+mFULw1reXn5+dkphv0giQ7/OGo6i8SSrMl7S/k6T9t/owRHpluIISLioouX748dOhQq9WK2HmI+aj9q1Ng1UTXrl0PHjxIPHocXV+r2r9z+vOd3aNf37DrwNHDxz49/fmXly6cOnr06MH95R+/kicIgv+JORV1jQcO7KraUt1w+vs/fHN4zdrVK5YtmFsy7uFMc8sq+97jCrc1Hj1+rPHYsSPHTxxrOn4zfPzY3iUP9Wk+XcNgsfsz4rFYPNa978vbT19cMWVsXvNlJOAhPWCz2cA+/sADDyBbNaUyPjiJJw9EHnNbEOAkTsOYyiQlJJ6bm1tTUzN//vxmFxtvr0Ej35qw7fL1pjUlz4yeuuX8uR2/fWP9ySMLRnQnkm3xzoOG9vEHljZcOLahZGPD0cNHjx4+8+X1K58mAkeP7lk1ym4RYl3HrtlN0dSJ40ePAX0d37f9N6P6NRenk53BaDNHxeIv7b789dbSp7KbL6MRX0LBhZt0urlz5x47dmzkyJEIZd0eEi8oKGhoaKBXE4pG71MfLKnftXTYo88Wr6tdNnnMpNJ9n59e9vZLw+Zu3v7J24/ZXdEHHntz7rLyjevWLp47c+byHddunF70yitjXxwLf889OSiYaMnQ2es//6Jhxpvj3nxzzooDN240zp/97rg335w6t/rilX1jHm7e3Nc34NF5VQ319Q319QcPn//uzz98ce5w4nLvlrm/bbEqNYMC9vHa2lrkgOpUxgcncRh8/N/bjgAncRrSVCYpkHinTp2qqqoWLlx400kyPubtWRu2HPrqu6uN+/acvfbN8bljnlp57saFfatmfvzxpI8/nPByv1jWy5NqGhYPzVnTcLx6Zte+Dw0bOmzY0FWfXz9SmggMG/Zgn5BoELr0n9R05eTKhRPHvVlYUnb5xlebl896c9ybH3w09cSVL6a99USiIaKcN37JDqCshvoLv//PP3x9fn/z5fZ1xX2ppjocjlmzZh07duzxxx9nrT74icRVl5EbDAayklz1BkmSCgoK6urq5syZo7CDy1Z3Xpd8l8PzweamnbOfefiFytON7/TKyVrTeH7JhJiQP7xoY31T06lTTafOnr/8ze/+43/++6+///53V88nYk41nWrcNm9AojFDZ68/d2Rup0Sw75PzPz25fED3xJMq2ueDPSfrWkg8c8wbh84fLntp5AD698iCA9cPr3+WQgSOz5g6deqhQ4dU/YAMBgM4g6k2FvdfgCyBQAAMWMkl4I4V4DqRnAti8F5I0dkHPPpURWvK5R6brcdXR10Bias6++CTFPz9EFcvxAENd/bB5UKqLMuq4wqfCwaDAXH2gZJZswyXC6ut8vLytm/fvnDhwp9OeMjrP76wbOWanReuf3n08LFvvv68dvGk7Rf/fO3MoR01h6/87venauY+1SP7lSm7Di4bnrOm4WD5wiEjF22v27+/7su///1PFxOBHcve6WwxCgkSP/bpxlGDnYIQ7Vxw4EzTa83KvMOfUX7i8xYSl8wPLD5+qXr12zRhDRgwYMnOG5/XPtV6EKWnp5eVlZ0/f37gwIGqYJJJep/E+Jmaf6qJRqOxT58+dXV1SRt9vbDp0GdfXrlyYOr4HoJgLqq9snP9b5tJvM+jHx05u+eNgE7Qi1anNzOn88tTy09dOFe5ueHKl40LSqvPXzq3fe64Ib2yI/50Y6IxQ2ev/+Ivf/7m6rWrV7/9/q//+Mdfvvvm2rWrV7/+9k//+f2Bn0j8wMmaN3vFWx0xGnhv25dJJA77xXz00UcHDx7s06cPOODSrTOZTEBqdCSEwb0VWD45FWKCwSCS3WQygXtkcnbiOc1KwuWGQiGkZFwu0mS5+ccqWZKk+++/nzv7tJ50HXIFbvdPP/30rQ4PWZY1ex/pX6vV6vP5koWCVyQ+PEA0Ky9SK0mSbDabx+Nh5W23XEmSsrOz6+vrFy1a1OqQjf5PlVU2fHrq7Jdf/fDXP31/9fyZs59/84//+uOesnfyHvyg4drFefkOUU+T+Oqx79YfXD5n/HPrLt04seC5t5dWHT28eJDD1Ezin/7ub7//7vq1q19/8+1//b9//OH7G1evXb3+9dd//dN1isSPnlk+fUgrxrJYPlx79YKSxAVBkCSppKTkypUrjz76qMViUcBCcG6PTbxz5867d+8uLS1N2iHT1/WBoW9O3H2wbNKQdE/4hTk7N61eMKHms6OFL5TN2b1xRt+A1xOOPTFhRu2hk4e2r/zgxVFD31nSdKF+rDUt++Fxy2sOnPn0ZNXCcXkJW39CEz+xcuyAQQMGvD6p8rPPNr3z8kODBgx46vXFB0/Tmvjlc/Xrls2fv+CnvyW1Z79SI3FwJZgyZUp1dfX999+v+GKQypsaN6d0CIHxQgWBm1PoUdDuSZqdnb1nz55ly5apbOXUb9zWfUcuXv/h2ysXj9eurzj91Y3Go40bi8dNmn3x87qhsiQILSQ+cMPBg+Vrxr63Z+dLI8JC0afnan8j5I0r2XuQkPixM9unvv3IoAGjX37j2PnPSie9MGDQgOEjx1R9SmviTV+dPbKJ4qsEd+05+8OlHQpNnDR89uzZZ86cGTlypCy3+gr6kzmF3KoIsPDq3LlzbW1tWVmZx+NRZGm+tPcbVrW/bGnZ+Dmbq2prd+xoPHXtD9+dO1C3a+/eHRXln7z00cQF2w/s37FhymtPvTJl4bFL188cqv549OhRI0c9P37i0i11h3avHpkNJH7x9NZ3R40cNWrirJ2XLtZOef/pkaNGvTZx3YmzDaCJW7Ken3388u6qRdNa/Wbv+uyL/WufVqucIAjp6elTpkzZtm1b9+4/fbmAhx5ZY5+cleCVnAQxv7ataH+e1SlWb2ZWhF6BZMnqmR9rOXFbL0rxHr1iIfJ9qLlnPLG+A/okFg+0/DL79C/w225e3fX/cxKnu4hFSnAPa5ICZS1fvjxJ6RQc2X1eXnboxrXPGqoOffnV1X1Lpj738ku/efK1umP1jaf3X9z1lizpCYlP2XGqbuk8jMSPn6svnfLiyFGvv/vhp5c/XzZjQoLWXhm39+yVFk3caOm3/uz1Y3uXtWKsadP2nPr2XM1IuqlU2GKxgH181KhR9CYcpL23pom73e7169fPnz8/GY6bQoHEZ4ztPvjxJ0eMGPFyyYJj1z5fPfGtESNGjHjykYeyn3llduW+E0dPnDr52Vff/P6Hr78803TyxPFT5y5fvXzhs6ajJ47sq3xzoCBYHp6z7cqNi2dPHD1x4vTl7//05+vnzzYdPXGi6dyN33/dYk4JdXpt56mGN0YrTpAWoz0HPdA9cLNCyf87nU5Yd0g/2do3PkjhnMQJFKkHdDp9bp8BAwYOeHTMC2++896HRaVLlq1av7mqes+Bxv1V4x/66SyhF1fVV0x/JfHQFwTZ7pq8cc/i14d7qRp0e37Swb3rRw97cMDAAX1752eOmtrQuO294YnCBwzs2z1qcT78wnvvvgd/rzz59pItlZXU38ZlMx8qaB5fFkePyUvppJbw6lkPSh24bSkncaozE+aFW9W0wuHw+vXrV65cGQw2L5igixMEs2/Qb4tnjx3xyIvlR07trZj53gcTXh3RKdptav1X//n3qxvHdBETK56Dw18omfNuwbx9F2pmv8cicWOXgTOavrr++bmmoyc+PXPhD3/6j+vnPz1x9ERT02df3/gKSNxgsr5dd3lPyRsKyhIyuz44oAA5iTk9PX327Nn79+/Pz88nLWgPidtstlmzZm3YsAHZr0MQ7P2GVR/4ZFnxE6O9TrsgeG9+2LwpWrY4fYFIPG9GwxdfHlz+ykN5Odk5g8YuO/fFZ4VvPBIKBoMBn90k6Hs/s+ZE07qH+gWDweCTr64699mGp4bHgsHg/Y8X7z9T36yJp2f3XnHkdMnzQ5JWYN6Uxf7fYrEsXry4rKyMjIl2jA+6eE7iNBophnWicezaw5cuXLp07vyFa9//4fsr+zYtmVH07guD++ZGw06rBOWLGa8cvn516YS+wXjnh0eOefbFV2aXH23cvuy9F5955tmnB/YIGgIPTN564ur5s+evfXPlVGP9pmWbD5366v+z9x1+UeXq+/s3nOkVmMoUmAGRIhbAil1QARsW7GJ3LWvvHaSDFQVREUWQIl2adKSJrLpr23q33P3e36276/05EwiHM+dkkBHvlpzPfCAnOcmbPEmek/Mmb9LV1tT+2ZP2xvLS3MT1Q1wPX61vevT6xcv2xvqbp9MfdlWd3bI5+V5F/fXjOw+fLK6r2hjqYxIncwwu6HiYc2X/ls2b4e9czucvajYI+3zk2lh2SnRM4mRA3rWTSqXSo0ePpqWlgWO/yEkBt3b25tyajo5Hj5//3z9++uZ1a219RcZpH7V3+JWWv76uWu3narZaYQtEdg4OczOaHp9dPYpE4rkbeT7bz5SUJ5p04q7jggrqH2xYMs3EUtODH3Q83BMeqNPpPH3G3W58DEhcIFVea3wWu206xzIr1nwkEkliYuLly5chZb0zifN4vJUrV16/ft3DwwMhjsW2D1he9uqn77qKryzSKWhI3ByZ5xUUfbPsYdcXP37/3YvO1pff/dSccWaej7erVs5msQi2cMqaky11t6a6mjU29KtTOKOCzzc33Q2brEfkBxGkUChyc3N37twJVmIi2geHw9FqtTTaNFLqmMRJYLwXJ1vkoJ/xcVR1Y8XJlePEds7T1h/Nyogco+hRhYgdN6bVPs6PWzdpxaHE05l5he0vfvjXX7/san34pOtR9f37p7cE+wbtKyjJCJs4ctWFe3fPHtmw61xtfeG+mSMmbU0pzDo1b6xMzDX1JvepC+5VZM8YY5QpEx823Ts0wT/iRk596vLgxSsL6h9sCvU1lcdE4u2NF0+HTfD3h7/jl9ufP8AkTqnvwd4Ai8vl6vV6ypwW+aQbmJ+QkJBr166RR68wqNuhMvhOmuo71imksLX0oOmTTqLxWHwsq7XjUcfjxy23do0wykxPcu18tl/pasucSzjPXBQVMWuiijjS1FmTuiQxvzz/7HpvsdBu2qo7TSUx0zzxo/ObAAAgAElEQVTNa+gYVqdoA861dxVtMS+/o+akH/d2dna3bt3at28f2EH2nUnc1dW1uLh46dKl8D1AK5QjkS27WJp37VSQu968yMRiJC52Gh+8bMOWbXsjL97ILKqqqbyXcTY6Oik1s7C8qrzgxoVNS6YN1Y46dq0xL2aFzt78xuom8cA5YRu2Ho2529KaMX+amjfiREln0YXN7g60GemXZ0hISEVFxcSJExE6cWdn540bN546dQrVFP58x7MNtk7cTjHq4+jcp1/95dPiCzu27zodc6e6qiB+9yI3kblZEYrhi2ObX39bcuN4QmHjnYhQL78JsaWtZefCx02dffzS+TUBpm9TsffEnfGXk88mJpxNvnTuQnZR46PqrItn48+ePZeSej3l/OklBg1frp+2YktJdf7q0AnumvOdLzvzomOLG9pf1KZduHytvbOum8RFUq/1h2OjY6m/EzvGmt8E/Wpw7/4QHomTMQMjLYlEEh0dvXbtWhcXF/IaakhqIIpAIMjNzZ03bx45BRq3bOT8zXvOt3Rl7lmqdfbbcam0o7Hw6IJpU2atufng8YMbe7zVhMpnUXplS9bWmaToYGKz20MknxxT9TDj0Fwnc/PsXmK4JmzW0rW7Dx598Kht35ophMPwAwUttZe3oEbBJAG0Ti8vr8rKSmDvAsvbX534pk2b7t6922d1Dp0QFpfvNGaCu757rokgpMPGrj2wa5oB6ilF2lnr9kUc2xy+Zs3yJQtnTfZzUQkINkeqHTpuesjSj7dtmuPvKjcsWBE+bZhjt65R7Txm7pwJjkNnLNj2yc7w8BWh45zUAo7Hgo0bpg9DqL7p8tfXT6PRZGRk7N+/Hx75QQ7XaDRbtmy5d+/eX/7yl6ioqB7rAPIjvW48Eu/F4n24ZDqfbZFJ0dHJBc2v//nTi8JLRxcuX73rxNHwSUCd6Lru6J3OjsamT18/LkvbvnjpkfTaV0/rbyfHnEi63fD5919UR5hOpRw2+0xZQ/HdwsL8oqIC8i8/o7Di0dPmBB93Q3ji/ZZHX3/7ZVvz3RMeaXWlVxYRxNozFwtPeKmGDL9WUQlIXGIfeDDmwoVzNL/dK4Ex3vsotkUamMTJkAASZ7FY27Zt++GHH0pKSrZs2QLtVCCpgSgBAQH3799H7E7enbLDhB0RCbHHdk33cuboJ67/ZNus8V7mkaHAdfSsTRuWeCgJxZBxq8IX+EjIerPZ+49sGt+TOb7EZ9HmdZN65tglMuWseSHuI8ZODd+8c+3aVWFzvYwyws5z9oaNc4ebjc17Ir7r/7dmJQkJCXv37iV/efSXxCsqKtatW/euIgmCxeWL7aSC3tUBBMEXSaQiuFqgb5JcrlnfyeZyeRwavRGPfPQdi2frEIjD4WzevLm0tNTV1ZWsTuHz+Zs3b66rq/vxxx9//fXXly9fent7k+eF+2badIdJ3BITW3xYEqV/+Mm75Y1NlXcOrQ5ftWJh8LItF4paXjzMWjHC9OGkcDRM/CT185dtUSuGBa4+2Nj5/Pmzh0VZWbfSkmNOXijvepm8bgihcJ0atmxP2v1Pa/PSr6f3/G7m3qsqzUg5uXbVVEe5UOs+f+PuB83lm1fNHKlJevzNV13VtZ9/8c1Pr1obG1ufd1avnTuSIAildn/9Z105lw8cONjnl934sv7aBltKio6LSZyMD+yk7u7ujY2Nv/zyy3fffVdVVRUaGgpO7SF30vT09F27dpGjM7i5UnsHO4nQzDdcgQB86nU/25Mgh2ue4iSlILCz75mcMfuy+XyaCW4eILSeeLz3MAkeEBBw9+5do9EIX1ofgfXzln+BsQ/0f/LkybBhZvvJnvww/GdxRGJBd3G4Yqm0++UlsZfZkd9jDLF5QrGoe9qK8gRH6iBnToHN5siVcnE/JFCSDQoKqqqqGj16tFAoFIlERqNx69atz549+/nnn3/99dc3b978/PPPN2/e9PHxGYW8pk6d6uvry/SI1ehMEa36T5s2DZE4IshqyugHli5dOnjGPmwef/ud5hfPX79+/aKrq7Pj1V9/+vp5XVnZ/bLSrJz7jQUJgXqxbPK2gqfff9lWUVlXnR6+cKhkT9WThqNLxu64cz8ldPownZbdvZMaa0lCwTcd97Mys3p+d0vuNz6I3+/P6n4C6sTZEqWTwWAwBEfcaO/Mn2lyOusUEtNua0rdwZqu/O0LTBvZrblUWpm62+RisfZn1Dbc2EgM2qVSqa5cubJz5050dQwgFN02xowZM3ny5AEkazUKWu7YsWMnTZpkNZExY8bExcWBHvrmzZt//etfjY2NK1asMBqNkLKam5snTCCbshNMl0AsEQLW4fCldt1LWEUSqYOYhpYpibB5AhHgf0oAwRZJ7B0kiBSEcpWyz+CemgL9/bBhwzIyMiZMmAAp+iPQFi3/wi8XEPTkyRO0UrhboEDsufaTeTNMgyWWZPQnJ0/MG6oiCKnnptNJe0K64RnqO2dR2LKwRQHTpk8PnB+2bNniBTO9gV5k8pId4VMIQqjUDB8zfsIE02+833CjTEz4bjiWtDeEvlgE4aDWnTp3am6/qqxPGrNnz66srBw5ciSPxxOLxcuXL29ra/v555/fvHnzX/P166+/trW1FZuvoqKiQoarvLycKbSoqKi4uBgRyhRUWFgI5DLINHnbIhedq+LiYoTc2trawSNxgs2WTZq1bPH2iKj907xUQ44U1KWdDhkVuufErvlTJ67ZuWPa8GGLtsVnp2ecjz21e+vywGFO0mmnGh8VrTeM3n6nPDV0ml7Uu1p8SULBD5+31lTXkH7ldyJ2zVDagx7mPnVBYU35wd0b5m45nplfWJhf1vb82798+qAwv7Dw7vUDs8bLe0h8m+mUNMGOjNa69N2gGe2/Oegkfvv27ebmZtq6QDRLq60OUfug4b0945BWqNVmCUTTxkXnCi0XxIXNsrW19d///jfop2/evPnll1+ePHmyZs0aSGVNTU3jx0OFR59eT7lZ9Mn+xea9lgTDZh8+fcBHSxAidei2w2fW+3HNKgOl67Dg0LBlS5dMnznRfeaCZaZr7nBzKi7+QVtWuYnEXAdPHzNfmSjL19NoR+jmhR+LWOfJp9EoAPnToq6dWz6Wkhfrt8OGDbt58ybYlpXH47FYrP6qU549e0Y+JYdRlJ0iMLvuzK5QQqIeOnHFlYrmtFOrxwSsz6huzY/Z6qM364O2JLS0lyRVdlaWlpdXtVYmlD1+Xp+wxWPRknHGyIsPsnYThDFk+fUHLe3tLe0dra2Vtw4FeLruv95Yn9Zr08Ric0LCd+36pPt39ERE27P2rORenx3rFnsarKuf5s6dW1NTM2LECJ55CapEIpk6deqZM2eeP3/+xnz9+uuvWVlZQ4cOdXNzMw3NGC4/Pz8XFxfaQKPR6O7ubjQamUJdXV1pgwwGw5AhQ9Byx4wZw5Syi4sLWq6bmxtTnl1dXYcMGcKUK4PBMGfOnEEkcYKl8AiKulrRVBi/aIRiyNGCurTIUM+pB6/kt1TeXDljmMjEqvoRXpMWb9h+JDpi/8JZS47feVyeMLSHxF0Wfbx5yRTQSpckFHzVWtijSzErVTKySu4XxMyZqCAI7/nr4tOyPv/ii66H5Yk7Fq1YEx6+5lhmxfNX9UfC14SHrwyb5m4QEYTCcWtu1fW1s4RDJ64uaH9dnRK9YX3YxGGancn3CpOWM3YHmwNUKlVycvLGjRtp6wLRPFxcXNzc3JjaBmiTTLVvMBjc3NxGjRpFKxQ0S0TzcHV1ZWq06L5gMBjc3d1HjhzJJNfNzQ3I9fLySkxM/M9//vPf//73l19+efHiRWJiYkhICFkD3tjYOGPGjP7UwMXqtvPbCKGDctT8rXcbm5O3+E9esuNOZd3NqPChOhOL+4cfrK27FNPcVd6QuaOi7XZaY8eXj+KU6sXLgrecOFGWMUWmlfmfLWw3U1Z726OyKwfHOU45mtlYsncMaZjuErR8C6SsXZ+kPf76ZcGFXsraun6hr5v1/A4fPjwrK8vPz69XncIUCZAaDM3IyOiXggmSuP+662UVVXWtbc2NdY2Pnnz6qL6sPOHgElOCWxIeFJ4cG1deVlpefr881vdEaWfd9ai56ZnbJ6UAEhdpnEZPmTZjxrQZK9dmNDw4vzBs6fXm10/rMi9fumz6JR6dp1Xvv5iXl2P+Fbd8/dNf//73f//j+9ctVffzzZ53kk9NGkWzvB+WCFjh79u379atWzqdjlxeiUTydslKVFTUV1999csvv7x8+dLf379HO0ZOoNeNdeK9WNjs4roHp5R1tBSdWzlZLeQSLscK6tKOjiMIO+3QZYlFnzbmrZ05c/7GuJKatra6wpS40yePX6p//OmdbSMJE4lXXls3Y0ZSWWVyOMjIkoSCpxUXtm3f1vs7euZOc3vmyiBHghh2JPXu1ZgNYcHj1m2POL5/3559+/ZE59R8/rw23uzet3mZn6OM4IqMgVv2JaamV7d11tzcG7hkR3ppfXN9ZWNd5dkd021YIWUFLKwTJwMEO+mwYcOePHnyyy+//O1vf4uOjh4/fryDgwMkNRAlOjr62LFj5OhMbkDi3sGr7hRWNDxsb62pb25r+7S9taau9fwOk4rWP/xgccZMr2slJhIvur9q/pXslqbL7sNu5pw7m2wmcRlPMdJ/hpmyZkUVP7l/PnzK4ruPXnQUZqWYKevcyW3eroE7Ym90U1Z529d/+eHv//7173/5qr22HHjeunJ8jmk6HnWxWKzFixffvHlTpVLB8vZ3JD5v3ryKigp3d3eUBGJqQk7T8+/+31++6My+df/Fi/qContF6TsL0g9dupdbk19z89zHpuh0JH4jen5G9ieTUgGJE2wOz7R/j1Do5RdTXnk55sLpx5+3Z6VcuZye8/DJZ7VZscEqB5HUXqHW+SzeV9D6tDU3pqSptbz4dkdb1akVYwxalYNEzCVPp9Ll++2I4+7du2vXrgWHaFBWTwoEgiFDhpw6deqLL75ITk6Gk+B0KeGJTVpUBurJEzv5T/YxiJQTll0pfND+uDPz6Gpnc2J8O0Vg0GwXoX7kpFlT3VwUMvWIaVtvV9Tnn1msteMQco8lkfnNLW1t7c3RS7sNO+dH3H7eVlN4r7D3V1LV0tmaGhaoIgi2SCoVCzlsFjF36+28kvsl9++XlFdWVFeXl5vd92/Fh7pPXZh6v/VRR2t59oW1k0epJHw2TyB1kLv5hRy+kN3cUnty7ZiBFtVKPEziZIAAiXM4nFOnTr1+/frs2bNeXl7wiHpIaiCKt7d3S0uLk1OvfS85qW633+KYvJqvf/rnD8+q7pU/6HhQV99aeWl+5r0rd+4k3Mlr+qog0qSXoyXxKx7DbuVdPHfZTOJSgs3lA8qyW5/WWZkZG57W+bg56/qV1GtZj168Kk/dNcxFLZRIZWqdf+jm7IZHNWnXqp9/XnE7s6m5In5DgLuzo4NEZHXeUygUnj9/fs2aNQNZnaJSqbKzs3ft2oXYpJwgZN5Tg/cUPMw4u2d0ePzDTyuidl0tbyouyqt/kH9+c2Rx+rmPCZmj58mM9prUDTebmxqam5uab4anNH7ennNlW2Yvidt5j19+MOLMmagzF1KK21q7Oho6f/x/T6O9HYxjQ/LqH6wL9OGy5J7+MzdHptY2PrhxfNkIo1t6yY21s3QBa05Wtj4qu3x0sb+PSgZPhqCpPhaLtWnTprdaxREjzMsdzOoUmucIwsXFZcOGDcOHAyUY7SOYxOlh+RC+QoFUbNoKlOmSuXqP8oBLXM1PCSW6Eb4ejnLErBMlNY3HMGD2QfE39SVHveOgDcUxiZMBByQuEokOHDjg6Wk6YIZ8UUj87Zqi1NTU3bt3o079tdMOGzcxo/GzrAj/sEMxdZVp+2+WNWTmlrdXZ108cqagOT9SKLCTLzl8qaFk14qCxoeP7ifWNp3en1v5tCt73qxeEpeLhszbfiLKRFnRGY0vXjWVNHz1r5floT6uOvdDde15m2dLCL5yqO/EVSev1TbW3Ti+WCtfkdNYtmeudtrqiLKHbVUZUaH+Pjpl71wOuWjQHRQUVFxcDAxQYXn7OxLn8/lr1qwpLy+fM2eOpa0UlEFAdcr0HYXN9VkXr+WUltY/qM3PSL56tzolcg0xNvh4QedPL9ofdn7x9ZdffPPlF50Nba+//6bm/p3cXhJ3Xrgl79ln+cnnIiMjz5xNuVNTcrv80ePiM9PGzo9qqkudPVrO5g49cKussKzkbta1U0f2Hz5ysryuKi1p165dey7nF5ck3Mq/GTl9BO0WXd2ZHTFiRH19/datW61abBIEwefz4Qu/t7AkF1ankMDAzveGACZxMpSAxJkUm5DUYJTZs2dXV1cvXboURVkEAdQpPgu3lFaXp6XfKsh+0NxckZWSklXZnn5IoB0+Pq6w68un7Q2ffvvjN8+fvfyqq/XTr//23cOMiF4Sd5TPuNT0su5+WqTpOnc1v7youbm65sbyUX7bCzvvn5+rJwipz76Ue0WlGclZ1+KO7Nr1SXJtS9PtxF27dh5NvVuQl3In/3bC/FGo4YCfn19FRcXy5d1zMLC8/SVxgiDs7OwOHjx469YtrZbZxAaSuNJ1wt64gvwC+Mu5kbTa04lwUI0+ntFRdXFtWm1dbW1DXe3VVRdqnrbeubjldl8Sf1i20t1kUc+Sqoy+o9x8DlzreHgnIqW55vwOHzuCYLGMo0Z7zFqVUN6Uv39n2MJFi8AvMvuzLxoPS7QeHs5y5k1VNBpNdnb2iRMn4EwIVLfBFkB2QLzInmQ3JnEyGtj9vhDAJE5G8l07qUAg2LZt2/3799Gf0YDE7bXGjYcTcnJ7Kasg/exYT65A6rDgwPkH93Yszal72FYUX1V3ck/m/Scdt+bM7EviNfURn4w2Z1fi6OU3fNyGo1dbso7G1n1enLBeafIXuI4c7TltysdlTRdjDnfz1cJFi2Kutb5sODDU08PLTcX8Rens7JyZmRkXFwd1IZCU3oHECYKQSqVvN42Ki4tjfLPZq2bdrUu9HLUw1FMVlfGqrbRnVUBJW0vOenMJA45cbSuJ6J7YzM9dMvJISWfdjej5N7M+6ZnYNI3EAYmz2BwOx7SfCmEXeu/J99++aDq6cmRvSYcHx1R//rrjUVNdYyP4dX311++a95Br3sKtUCgiIiISExPJ31nv2j4oqWISpwCCb98LApjEyTAOoJOKxeKEhISSkhKmjVdZLPal6se5SVMW+Y85EpnWVpXTTVn3al80XBfyTQvIQ7aeqM4O9rpWUtGQueVu9rJZ8dktTVfch2XkXjgLdOKmkXg3ibPYHC6HwyII8ZRthY9ffftF3eEpPRv+EAQx1Pfj6s+ff9rZzVd1jY2fvv7r9y171aildHK5PCYm5ubNm2QV/wBJHAB6+vTp2NhYOhN85cyNJ/LbX77qas2JWeV8oeSHpxU9JF7+9GmpeVqTCD15oylrnYnEG2pri++M8T5Q1Fl3btfozVuDPGLAxKaJxFsf7J83y29b7I271w8EjuA4aMeer3v19aPc7dOUAmjv6R0UVfrgxsrF43z9/MDvk8udL2oRdlrOzs6RkZEREREODn2+XAbQPsjNC5M4GQ3sfl8IYBInIzngTpqQkFBeXk5mwO5kHdznboloePbV5x0PUvbMi72a+bS+x7i3uPm7R1lC06EQ/IWfxJRfDfK8WtLVknOlMDss4HR2S1Oi1mnzzrV7z5gnNk0kXttyOWr5qDn7Y2/fSz40hS1UDl91u/7l1y13FukceheLu/l+XFRzYs+6br7y9fPbE1fzrHY3M4mr1erY2Nj09HSj0UhGo5fE7RkuufmiDXx7flJ8fHxERISFXmXi4bOXz+zfHDjMtLSWcyqPjsS1uy8UlcV6jY0rr+tqrc6LGzX046LOusNB5uztMJO4eOiK09Vffv3qWUdjVkrsni0LZ85fEH2npqP2zrWchoa8C6snDxHy2AJH5yGT5+48f6ugqKSE9CvIvrzBzdWglVvafr7dUzgqKioxMdHLy4tSNIVCIZfLKZ7wVi6XKxQKeGvpMBqNDg4Olv729vYODg5KpRIRipaLCLW3t3dxcaEV2h+5CoVCJpPRRkfUPnje399/MNeJk9vqn9qtUqkuXbq0YsWKd60mmUymUCgQrQ7RJu3t7RUKhZOTE61Qe3t7dPNAdBZ0X7C3t1cqlXq9nkmuLZ00JSUlPz+fOh06MuRwYlLEnvCxHiaFx6YEOhIXem86U5C/Z7rbhdJXncWZeXFzRm/Kbmk6Zrb4nbzRROIqnXJDztPvvv3y08bKrOSEnatD5s/clJxf35R7OaPmSX12RNBIJzGXkKj1QyZMW3shk8xXJvfdKxt8hhu0SksFMBiDZ2dnjx49mgILxPkjB4ZLYb4YAh1cXV1PnDhx+vRpynhcLOldEEJL4g5ei2+UlCedjc5s/OzVy46KG9di4/K7Ogo2ezlPXbo3qqKjJXsXITEErj12+MDmhYFjVRKR+/iPM6oePsiOnTvOWT08NOrWg7bylKXjHN0PpRTcK2D45aZFrvDtu7hIrVbHxcVFRUV5eHhYlkupVIJGbxnk4OCARsPBwcFoNMpkMtq4Dg4Ob002mIIcHBzkcjlTqFW5Li4uTHFlMhlCrkwmUyqVTHkG7YMpZQcHh4kTJ2ISJwb/giROWxeI5oGuX9AmmWofUK2TkxOtUKvdQS6XgzcEbXREmwS50uv1tBGtylUoFAi5Go0mPj7+7t27fTfTFojEvaNkWhKXD5txPr80NeHsxcYX3zyuLSi5kxSd+9mzB2ukylGrD9wsa2jLmqbW2M8/Fnd658qQycNVQr5x8bHCxpbSlMMh3nKnycsulj5suBszx10VvDuega8KCu7lXzu5lWJyrlQqY2Jirl+/PmLECEtMYO2/m06c6Lk4HI5Gozl9+nRSUhKrZw+KnsDu/6wpYdvCg4Z2X7PWf7zclyD4DuqJU/2Nw/wmjBs3ZsqECSPGjvEdO3aUu5Kr9AtcvXfv5vEjnAmCKxLZCQQAXI7G1SdkZsBwJ5lpNww2X67zCwgcN8RRIHH3GT9uPMNvnO8wJ3vSe83R0fHs2bMJCQmUtw7M84C/1EAKWJ0CkcSO94gAVqeQwbSlk7LZbDCMu3fvnoUKoVuIz+zFG5b4djPWtPkfb1zA5bAFUu2YCWOHjR41dtx4/7F+Y/0njhg1ZsLoYTKunceU8F27N84Yo+Zw2XwHh54NsVhy95khc6a4OkpNu2ZxuEqv0VOnjHOVCjVuwxn4avz4ceN8PV3JenGoB6doUSAgveoU6EVxoPEC+77zeLxTp04lJSXRG8Kw2CYbiu6LdAP9esLAf5ZpEhNqu/uEUV8TDCn0idNzw2KxXF1dz507Fxsbq1b3XS/c8wxhPliaS94jkRRkWgvM5TItbAIPYhLvCxi+ez8IYBIn44gmJXQnZbPZAoGAz+fHxcVVV1fTDuZYbNL+5CwWEx3BLDFTFtPIFka14njLJzExMdeuXWM6k4hMSgMfiUNSO3PmTHR0NO0RdlZy+kGC3dzckpKSoqKiNBoN+VBNinBb2gfeipYCJr59XwhgEicjaUsnBSQOyDUuLq6oqGjoUHA4K1nCb8Itk8liY2OvXr3q7u7OuA6QNLJ8DyRub29/5MiRyMhI5Nmb/xt0tFrt5cuXo6Ki9Ho9i8XCJA6rgcVi8fl80sADhpgcHA4H8V1CEMRgn+zTJzd/4htM4uTKf18k/nabjfj4+JycnH7tzErOweC7lUpldHT0lStXwCEHH4jETVvmK5XHjh1LSEgQi3snNge/vFYk6HS6lJSUtzMD4O2CSZyMFyZxMhq/WTcmcXLVvC8SB6aLZ86cycvLQ+gryKI/jFuhULxdvZ2amgoUGzwe78OROEEQEokkIiLiwoULaPP0D4MFQRAGgyElJeXcuXN2dnZAKCZxMviYxMlo/GbdmMTJVfMeSdx0BKtYHBcXV1ZWplKh9ucgZ2BQ3W+zERUVlZyc7OwMdnsjPjSJg+KdPn363Llz/3O9iru7++XLl2NjY8lH1GMSJzdBTOJkNH6zbkzi5Kp5vyQOUgY8/j8fj6vV6piYmEuXLun1ps1GwPW/IXGRSHTixImYmBga46ienA32fzAGf2vjRJlrxSRORh6TOBmN36wbkzi5agaDxN8u84iLi8vLy+vf8ZPk7Lw3t0KhiI6OvnjxosEAzgHvTrm/JM5juMBRdQyBPESoVqs9ceJEYmIi02YF763odAnpdLobN24kJSW5uLhQMg92IqR4wltEiXg8VHlBCjqdTiAQwNTIDiCXz+eTPclupoj9kavX65lSRsvl8/lgxRU5J9CNRoPH440dOxYb+9A1wPfsp1KpLl68uHjxYlg1ZAeimtD1i24bPB5PIpGo1WqyLLIbIRfdaK3KlUqlbw3CybLI7gHL5fF4CNFgNUhubq618xLec+WC5JRKZVxc3KVLlywpq5/l/YjDcAFqYAjkAFCYQoF6/urVq4NSaOZEtVptRkbGpUuXlEolbd6EQiGtP4fDsaW8wPQJvDZp00fIBSvuaWOBXPH5fKZQDoej1Wq5XC7tA1wuFyGXy+W+XTPLFBf0HNpkgeeYMWMwiTO3xPcWAkbiCxcupK0LRDdE1y+HwxEKhUy1D0KZOpHVZonIFUiZtizAUywWv2UPpgds6aRcLlcgEDClrNForly5UlRU9IH14zKZDGhRnJ2dLfPWz/K+hyWGtA1WqVSeOXPm6tWrHwYUFovl7u6enp6ekpJCb3lk2rwWLzHsrSsb1Sl+fn7t7e1wI9/edLHrvSKgVqsvXrw4f/582lQR5i1sNpvP5zPZnIC+wBQKNtBHfElzzRdtlsD6VGhEQnnGqlyBQIBoVIOkTiEIQiQSAT6tqalhsueklMX2W41GA9aikPXg5GT7q04hxyG70XiB8SP5eYpbqVTy+fzIyMikpCQ42Up55j3eurm5pfo0faQAACAASURBVKSkxMfHjxgxgmlRDiZxMuA2kriHh0dHRweTQTBZEHbbgoBWq01LSwsMDKRNBJM4GRYEGgRBkI19yLGAWyQSgW1NY2JiCgsLqftkWUaw2Ucul8fGxp49e9bb25tpRd//nsR5PJ5MJjt69GhCQsKgvtx0Ol16enp8fLxer1epVJjEQQNDj3psJHFnZ+fy8vKAgACbGzNOAIWAq6trfn4+OEHQ8jkEbeGROAWufpI4l8uNjo7Ozc0dVDugt6qq2NjY+Ph4rVbr4ODwmyZxgiAUCsXJkydTUlKYMkrB+l1vdTrdrVu3EhMTwb4omMQhgINK4nq9PjY29uDBg1AcdgwGAitXrrx16xaTDR0mcTLmCDT6PxInCMLe3v7MmTP37t2jrBUhy7LFrVAo4uLiEhMTgar5d0DiplOJBIJTp05dv34d2t3YAgGMy2KxhgwZkp6efvbsWXhGDyZxMj4CgYBJ72njSFyr1fr7+xcUFIwcORJKxI73i4BIJCouLgZHm9OmjKAtPBKnINbPkTiIJRAIYmJiKisrEVvmUdLv562jo2N0dHRMTAxM+fdB4qB4ERERly9ffo/6cQ8Pj9TU1Pj4ePKGZJjEYWMa1JE4+AyMNJ+RhJiJgpnBjndFQCqVHjt2LDs7G9FlMImTUUWg8U4jcZhmTExMaWmpm5sb9LHRoVKpoqOj325uRV7u8XsicYlEcvz48XPnzr2XjxQnJ6cbN27ExcVRLHowicN2NtgkThCEp6dnamrqzp074ZcQlI4dtiAgl8t3795dVlbm6+tLHqNQ0kTQFh6JU7B6p5E4jBsbG5ufn+/t7Q19BuwAJzxER0c7OjqSE/k9kTjQjx8/fjw5OZlsDU8uTz/dOp0uIyMjLi7O0r4fkzjE8AOQOJvNHj169LVr186dO/deGjrM/J/ZMXTo0Pj4+Ly8vBkzZvB4PEzisDGgl8whXmkDG4nDLaHy8/Nt3Lf27Wq9hISEM2fOWC7cfA8kDpZ8Wv4F5nyW/sAH2GUxhXK5XEdHR2BNQHnmLX1HRUW9XUzCtJIUVhiTw9nZOSMj4+LFi2/nByiJc7lcsGm4pT/woc0SCEKXl2++mJLlcrlarRbYztA+g5ALjTJoI1qVq9PpQMumjY6QC2qQKa5VuXq9Hkjk8/larTYmJqalpSUpKWnu3LkuLi4yfL0jAnK53GAwBAYGRkZGtra2JiQk+Pj4CAQCoVDo6OhIW7mg5TC1OnT9AkMwpmS5XK5YLFapVEwPoJsHMBZliotok1wuVyKRvLVgZIpri1xg7MOUslQqpeUTLpcrk8ni4uJKS0spI2gmgrL0B2PwqKgoYJpHyYNCoZBKpRRPcAtsuWmDQO0LBAIul/sR2aqV7EZbfIJ6Ij9Pcb89Dk0kElE8wS2Y50xLS7McR1uWn+zDYrE8PT1v3LgBTlmjTVyr1QqFQtogHo+HDkKYv1stL8LsHi0XdjbaPKNrgcfjIczu0XIRVsjA4g6BBo/Hc3JyImdYIBB4eXkdOHCgqKjo4cOHHR0d7cyXLaGPHz9mTrgdnfLTp0//9re/dXV10aaAjtve3t7Z2Ukbsb3dilx0yiC0ra2tpaWltLT0xIkTo0aNgtiKRKK3h0PCW4oD0TzQ9YtuG7ab3aM7GqUU5FurZvfAiJEcBbrBOw/eUhwAEIonvLWzs1MqlfCW4njLlXFxcVVVVQNQBWs0mpiYmDNnzjBtY6BUKu3s7CgSwS1iYwzAG6CTDqLFJtNYGxDiyZMnExMT3wmUIUOGXL16FSyuJJM72Y3VKRCND6BOgbLIDoVC4eLiotfr367ft7z0er3RaHRycrIM0ul0er3excWFKVSn0/n6+tJGfKthc3JyQsh1cnIKDAysrKwcM2aMZQpW5To7O48cOdIyYn/kGo1GBBqgvFqtFpibk5EER3BhdQrE5MOrU4BoIDc6OrqgoOCd9slSKBQxMTFRUVHkmUxYHOB4D+oUSorwFo1Xfyw2ESTOZrNlMtnhw4cTEhL6+ZEC9OAJCQlo3sckDmvwf0Xi6Bkk9NJGYPDNdN4QQRAIqzGrckeOHFlcXEy72MNqrjgcDlwTBhEGDjCFSPGEt/2ZYESUl8vlYhKHYKJJaTB04kA0kCsQCCIjI/Py8vppB/R2J6/4+PiTJ0+iVQ6/YxInCEImkx07duzOnTtW16i5urpmZ2cnJSU5OjoyvRsA3JjEYYvHJA6hIMw752ASh4Cg28afc+8UYHYPISI74MvDzs7uxIkTRUVFrq6u5Acs3RqN5vz58ydOnFAoFHw+3/IB6PP7JnGwV86iRYsaGhpmzpwpkUgsLVOkUumkSZNycnLCw8OBFh+TOKx+giAQL3l0R0WPPa2esWnLiBhxticeiZMrF6tTKGhAMqX4g9vBHokDKRwOZ8mSJaWlpdOnTxeLxZaUJRQKhw8ffunSpQ0bNohEIvSHGkEQv3sSB7gsWrSosLDw1KlTc+fONRqNSvNlNBqnTJkSERFx9uzZmTNnAu5G1xNBEHgkDts3JnEIBR6Jk6EAaCCsefFInAKX5ctj4sSJhYWFBw4cCAoKcnZ2BpTl5OTk7++/d+/e8+fPz507F1DWn4XE+Xy+v7//4cOHb926dffu3evmKzMz89atW/v37x85ciRUGmISpzQvPBKHgGCdOIQCLIvGW9FSAEG8t+AuhuQo0G1J4gRB+Pr67ty5MzU1FfAV+Hv16tWjR4+OHz8ejtD/LCQOwBKJREOHDg0ODp4zZ05QUFBgYOCwYcMoyhNM4rBhAQcmcQgIJnEIBSZxMhTAjW4eAyBx8L3i4uISGBg4d+7coKCgGTNmeHl5UXb6+3OROMCa9qUHqwSTOIQCODCJQ0DQvZTFYuGJTYgVWtWG1SkQKOCwhZQ+BImzGS6wqJ4hkA3sQZhC2Wy2SqV6uxOY5QMcDgfMT1oGAR8b5YLlK7SJA9G0QQBoHo/HFGq1vBqNhsvl0kaHR1IxhdoiV6vVcjgcppTB8WxMocDYjzYU2BrQBgFPnU7HFApwRuQKHDhHG91q80DIhedvMaU8cuTIkpISo9Fo+YBVuTwez9HR0TIim822KtdqeZmwAs1SpVLRymWzUd0QWPQxpYxuk2w2WygUvrUzZJI74E5qVa5IJHq7tvq9y7VaTWKx+O3JPh9eLpvNlsvlYrGYVnQ/cbbJYhPIoLU1cnR0FIvFlkFWDckQRmjQSAkhV6PRMFmLoU22+iPXsjjQR6vVMpk4oouMtgVF5wptsdkfuUxI9kcuLDvFYYtcdFxQXoo4eIuOy+fzR40aVVJSMmTIEBgFOtBxgX0jk+UkOi6oXyac0XF5PJ5IJALjEphVsgNRTTbK/VMdlMzj8RAWmwBJpt4NSYlcL2S31SpmsthE1yBZ7gAtNsF7HirvKV8fBEEAG1ZLf7CyjenwHYIg+vPlgpCrVqu5XK6lXDgjTxtku1wwTKNNHP3pymKxEBkG6iNEeTUaDVOoVfUCYqkf2K6BKWVbjG7A6BLOVFMQs9o8Bry0kc1mA3UKrbEYqCOmXIGlfkzGPuDgYCasrJYXfLBScIC3iA2wQMvh8Xi0ooFc2iDYFxDl5fP5lls1gVyxWCzQSZkSR+g8reIsFAqZdseDciE4FAdC7oA3wAJY9YeUKJmBt+jmAcxlRCIRfB46QF9gIgfQJsGU4QBJ3HaLTZhXisMWvPASQzKYVl8eCBLH68TJSAKDBiYSB3RJeR7e2kim2GITItnPkRb5ebIbPaYZ2MQmSN/qy+MPbuxDRhm4MYmTMQEjYrIPxY0nNiEg6F6KJzYhUHAkzjSUxhObZKxsf3lgEu+DJ/qlh0fiZLDwSJyCBl6dAgFBtw1M4hAo4LBlZIn+UPvjWGySIbMFL0ziZCTRHRWb3VOwQiiXsDqFjBXQxiJ0tQhdK7pNgvN4ETsp2UIO6A81rE6hVLHplmliE7zkETMqttQTJnFyTaA7DCZxClaYxMmAICY2MYmTgSJPMFL8wS0eiVNhweoUCiJYJw4BQQ+1sE4cAoV14mQogBuPxC0xwSPxXkysjogRCy7xxGYvjmbXgJcYYhInI4luk1gnTsbqdzCxKWe41Gq1SqViCJQrlUq1Wq1QKJgeMBqNtNEVCoWjo6NSqWSKiJarUqnUajVTXLlcDjZBpH0AiKYNksvlNsp1cXFhKhSQy4SVQqGgBQrkU2W+mPIsl8tdXV0RKTs6OiJC1Wo1U56tyh0yZAhTrqyWFyHXavNAyFUqlejyTpo0qby8fMSIEZY5typXqVS6uLhYRpTLTX0BIRfdU9BYyeVylUplNBpp5YJQpsZjo1y1Wm0wGAYgF+SKqZNaLa+jo6OzszOTXFs6KVq0RqNxcnIaDLno5iGXy52cnDQajaVohUKB6ClknD+SMFwO5oshUGJvby+TyaRSKdMDer3ewcHBMlQqlcpkMjs7O8sg4GOjXCcnJ3t7e9rEpVKpXC6nDZJIJDKZjCmiRGIqr4ODA6K8zs7OTIUCcpniSqVShFyABlNciURiMBiYQq3KRVQEKC8TVhKJxGg0MoXa2dnJ5XJErhByrTaPAcu1s7MbN25cWVmZp6enZc4BVkw1CBqAk5OTZUSJRGJnZ4foC+hQq3IdHBz0ej2tXIlEgmge/ZHLVEegO+h0Olq5Uqm0P52UKS6ibUgkErlcrtVqmeIOWC6oJoRohULx9hgHhFyrnZQ2rtXmIZFINBqNQqGwjA76Qn/kYmMfAlw2TqjaYrGJ1SnddWD+h55gxOoUMlaIKaL+GBnhdeIQTKwTh1D0OvDqFIgFWv/IYrEwiUOsrC5ewiROxgqTeD/RsMXs/negEyejQHajR6aIpaAgEUziEExM4hAKsC4CPdZGh2ISJ4OJSbyfaGASJwPV7cYkTgEFq1MgIFaX+qFpGh2KSRzijF6hjNUpZKAwiVPQMN1iEqeAgkkcAoJJHEIBuMPqMWkI2ze8ARYZTLR6APFdgkmcDGO3G5M4BRRM4hAQTOIQCkziZCj6Y2QkEAiw2T0EjcfjoSfM8Fa0ECuTw5aXPEEQmMQhmpjEIRSYxMlQYBKnoAFuHRwcKMdywscwiUMouh1ggpHq23OPSbwHCdN/vJ84GQ28ARYFDbQhMeIzHT3JjzfAouDcXxLnM1zg5CeGQL5AIBAKhUyhfD5fo9GIxWLaB4RCoUAgoA2CJyEhQtFytVqtSCRiio6Ia0uu+Hy+TqdDJ86UJXgIE+0D6Frg8/l6vR4BJiJL4NQoprhW5To5OdFmGBRnwHLRueLz+bbI9fHxKSkpcXNzo805ugGIRCKtVksbEd0X0KFWyysWizUaDa1cdGfpj1ymZPl8vkQicXR0ZHoA3TzQotFtQyqVqlSqwZCLzpW9vb1SqWSSi24btqDB5/NVKpWdnR2t6H7K/YjNcIFj4hgCTYfDglUETA8wHZQMvrWZzhRmm89+5dlwYLFarWaKzjGf0cyUYT6fzxQR5ApdXvRByQKBgMN8nPGA0WCz2eiDktFyf4MHJVttHoiDkkH9InAG+4kjDkpmigsaANCYWbYfcFCypT/wAadzMaWMzjNYYYI+KJmp0YIeOmC56IOSB0wOVss7eAclo0XbeFAyUy1YPaDZ6kHJ/SEHbLHZ/QWD1SnkTzmsTiGjgdUpFDSwOoUMiNVVMfhkHzJcBBovvJ84GSy0/hHvJ07BCr0+ncPh4DM2IWKYxCEU6NX6cGab/DzFjSc2KYAQKpWKaVEOntgkg4VJvP9o4JE4GSt8KIQlGmCpH8Uf3AKdGG0Q8MQkTgUHkzhEBI/EIRRgcRs+YxMCgm4beD9xCBRw2KJrxSROAROrU6iA4JN9ICJW16djEodYYRKHUAAH3sWQAojpFm+ABUFBdxi8iyEECjjQumm8dwoZLsQUEd47hQwUNrunoGG6RaznB09jEoeoYRKHUOBdDMlQQAtGvHcKhAWb3UMogBk50wwfeUIVLzHsBs0WtRc2uye3PKtqDfRYGx2KR+JkqPFIvJ9o/MFH4mC1kOVfYIZk6Q98gLUYID7aZxwdHUUikWUQj8cTCASIiDbK1Wg0QqHQUi5o7kxBwF5DIBDQRgR2E8AaiOkBnU4HbGcsH+DxeEKhkKnIPB4PERHYcTHF5XK5er2eKdSqXGA7Z5nh/pTXycmJNiLEGZ0rRJHRzQMtFxGXx+ONGjWqpKTE1dXVMudWm6VQKAT2XO8aF9hkotFgCuVyuSKRyNHR0VIo8EE0DxvlisVitVpNKxe0WER3AOTAFBfRF7hcrkQiUalUTHFBeWlDrXZhdBXb2dkpFAralEFEphZro1ywS6VUKrUU3X+5H1lGBj42kukfj8QRFM/lcoFNNi2YVskU0T7QrXawSZy2OMATTaaIjmoVDQQRc7lctFxEXB6PB8zuB0biAoFgYCRutbwIrPpJ4rTVNHgkDt/xtHJBKNNoCY0GmsQBXSI6C5qy0KJ/3yRO/h4hu8HogOxDdmOdOBkNrE4ho4HVKRQ08H7iEBD0/BDeAAsCBRz93QCLEg3eYhKHUJDnEMieZDfeihaigUkcQgEN9piOJAakhic2IWJ4YhNCgSc2yVB0u0GHoQkwe6FfWogZJJAgJnEILCZxCAUmcTIUcDUO0ysNj8QpcOGROAUQApM4GRFsdt9/NLDZPRkrbHZviQY2u++DiY0jYmx2D9FE6x8xiUOg+rN6HW+ARYYLTGmSfchuxIQZuk3ikTgZRqxOoaBhusUjcTIomMT7jwYeiZOxwiNxSzTwSLwPJngkToYDPeQhCALvnQLhsqqLx3unQKysjoj5fL5CoYDPUxzoZolH4mS48AZYZDRMbqsTjFidAiFDd1Q8EodAYXUKGQrgxiROxsSWkeWHIHEOwwXMTBgCOcCaiCkUKBDB2WCWzwCLDEt/4GNVLp/PZ4rL4XDAwYC0D3C5XKFQSBsEztACc8G0D6BzxeFwNBoNU3Qgl8vl0qYMhi1MQVbl6nQ6prhoucB0gilXwCqPKWUOh4OWy1T14MAgYDbFlDi6edgiF1hsuri40IpG54rP5zs6OtJGRPcFNM7gzDCmWgCharWaVi5otEzdAS0X3TY4HI5QKATjIVrR6GaJAMSqXLFYrFAoaIWiywv6ERMasOExpSyRSORyOVMoME9FhCLkItAACSoUColEQps4ui/AWvgIHJdn+RccoWvpD3yg2T3TA8BikzYUnTI61KpcYHZPKxeabNGG2ihXq9UCxGkTB1Z5tEGALpmCgBEaUyiPx9PpdIhQtFxEkUH7QKQMzP2ZHrAqlykiaPGgz9A+g5ALbRRpI5LN7mkfAJsQ0AaBlgPe05YPWG2TiIaBbpM8Hg+Y3VsKBT4I0YggEBddR8DsnkkuulmiRaPlSiQSsHcerWhEiwX9aMBQA4tNWqFW2yS6vOhQHo+nVCqlUimt6H6Wd+AbYCHs0BBb0YKveMTWXP35ckGsMwUbL5A/haDb9olNhFxb1olzuVyYSYrDqvpIo9Ew5coWdQpa6UkQhC0bUSG2uLLaPAYsl81mo3XiAoEAYXSDWJ0CRohMtQC+pplSBnXEFArWJyiVSkqrgLeI5tGfrWgRctHqlP50UphJsgPdJgmCEAqFcrmcHAW6WSzWgOXasgGWjXLRzYMgCJlMJhQKYTGhw2pfgLU/cBJHTMgiSBwcGoJoPbbUEz5jE7YAuBqHiVywTpyCFeLVglenkLHCq1Ms0UCQ4YfQiVMyBG/RZIqYgAYp4P3EIZLo0Qc+FAICBRxoMh3wSJzFYqFH4mi5iJE4upfaOCIGu9xRIIK3cCwGfaCjP3KZXvD4eDYII3CgyRBRC9Bkl5Ig+RafsUlGw+TGq1MgIlZfHgjaAhNBMClLhy1kipBr9UPNFrmYxGE9otsGJnEIFHBgEqcAQqD7sC14YRInY43uqFidQsEK3SzxSJwMF3rKBPGZjm6T2GKTDDK22KSgYboFDYgmwOxl48vDlolNxDQvurdgYx9ybWJjHwoaiKUHVskUPbGJbpaYxC0rguxDcWN1CgUQrE7pBQTdUfFIvBcp8wsej8TJgGASJ6NhywgPPWVCEAQmcTLUJjfWiUNEMIlDKMB3GNaJQ0DQbQPrxCFQwIFJnAII1on3AQSvTukDB2GleeCJTTJciHUReHUKGShb1okD3fSAjTk+xEjcieEyGo0Gg4Eh0MlgMBiNRqZQJycnd3d3puhGo9HZ2Zkp7uDJdXZ2dnFxGSS5Hh4eTIVCy3V2dmYCysnJhDMi1MnJyRa5iIqwKtfT05MJSavlRch1cnJCh6LlItqks7NzQEBAZWXluHHjaHOOlmswGNzd3WkjOjs7o+WiU3ZxcWFqOaABMMlFNw+QK0TKaLlGo3Ho0KG05UXLBaEIQNByXVxcBkkuulm6uLi4ubkxldcWUkI3DycnJzc3NyZe6qfcj1gMFzC8Zgg0mU4BCzemB1QqFZhXoTzAZrPBIaoUf3gLTK7hLcVhVa5arebxeJRY4BbsCEEbBL4umSICky2gM2WKrtFoOBwObSiHwxGJRGw2mzaUzWYzyQXvcLRcrVbLlLJVuWC3ENpcASNmppRZLJZOp6ONCD4shEIhU1ywHwgTVlabB0Iu2JeDItfBwWHOnDkGg0EsFo8yn3ZvMBgEAoHBYJg1a5ZCoQClsCqXy+Wq1WraItPKhU/2p7xMaIB5C5VKBVOjOEAnpRQZPAPk0gaxWCw2my0SiRByBQKBUqmkiAO3Vpsl6KRMcdFyRSKRXC5nitsfcqCNa7VZisVimUxGGxdMmDN1UkgOtHFZLBa6ebBYLLlcLhKJLKNblQspGltsdn912aL2wgclkz9dra4SQU8hokMHoE7Zs2dPa2vrzp07w8LCysvLAwICtm7dWldXd+zYMYlEAnKOnubFFpvk+sUWm5ZoYIvNPpjYSKZ4YhOiiZ68QtPWH8nYR6PRPH/+/F//+tfjx4+//PLLhoaGn3/++dGjRxMnTiRjhX554HXiECtM4mQorO6P/SF04pQMwVs0mSKWgoIUsNk9RNIqmeJ14hCrQbLYPHDgwK+//vrmzZv//ve/v/7663/+85+kpCSxWAzlol9peCQOgQIOvE6cDAhiehmb3ZOB6naj8cJLDMmQWX15IMaef6SROEEQRqPx2bNngMTfvHnT1dU1YcIEClYINDCJk7HCI3FLNLA6pQ8m6C8ATOJ9wMLHs5HgQOji+Xz+9u3b//Wvf7158+bnn39OSkoixTM58UicAgg29iEDYgspYXUKGUmTG5M4BRF8xiYEBEHiBEGMGDGioaHhzZs33377rZeXF4wFHJjEKYBgEicDgkmcjIbJjf5utQUvrE4hY43VKWQ0RCLR0aNH//GPfyQnJ1tuwYpJnIwVttikoGELKX2IkTg4acnyr9B8WfoDH3SoQCDQaDQSiYQ2ulAopPXvT8pW5Wq1WrFYzJQ+QjQ6ZXSoQCDQ6XQikWgAcgUCwYBzJRAInJycmISiU0aHWi3vIMlF58rG8o4dO7a8vHzs2LG0iCFqQSAQiMVicALfAOKiU0aHSiQSjUZDKxRghYiOCLKKs1QqdXR0HLBchGhEkEAgsLOzU6vVgyEXXWR7e3uVSvXh5QoEApVKZW9vTysa3Q1hKKOxDzjzzXIJOvDhcrlgQM30gFKpZDL2AafoMkUELz2mUKtyEcY+8HObNnGrcnk8HpPpBIvFAqfo0qYM5DLFZbPZXC6XNiKwI0BYGbBYLI1Gg0gZYZAFBghM5h5AbcWUKxaLpdVqmUKtlhecKksbHZ0rtFy0eQs4JcvT01MoFFqKBnlmQgOYbDAZ+4CUmWoBHWpVLp/PRxj7IDppf+Qy5Rl8w0FLKEu4EHIBVkyNFt02WCwWOJ7NUiLw6U8nZYqLbh5oYx8+n4/opOjOgpbLYrFkMhmTsQ9aLqwFbOzT/eVkyxcTNvYhf36CjmqpsgDPWFVcoLVtAzD2IcsdcK7wOnFyFeMlhhQ08OoUMiCEjWSKjX0gmlgnDqGA608wiQNM0G0D68TJLed3sAEWJbvwFk2m2NgHAgUc+FAICMhvcCTOZrO9vb3Dw8NXr169fPlyT09PmFvgsPp9gEfiZMTwSJyCBh6JkwHBI/E+aKB7Cz7ZhwwW7ctDIpEEBwdfuXKlra0tNzf35s2bGRkZTU1NaWlpCxcuVKvVIAVM4mQk8UicggZ6RIte9/whVqdQsgtv0fnGI3EIFHDgkTgEhJZMYahVunxfOnE2m+3m5hYdHV1ZWbljxw6j0Qjz4ODgsHHjxrKysszMTG9vb6hsYbPZ8BmKA4/EyYCgxxYIcrCqxhEIBDKZjCyL7EaTklUyFQgETPo0kUjk4OBAlkV22yiXz+eTU6O48ck+FEDwyT69gKA7DJpM/wBm976+vqmpqZGRkd7e3rRd183NLTExMTc3NyAgAI0GNrvvbVVmFyZxMiBWXx6YxMlwYYvNPmhgdQoZDvIXgLu7e0FBwY4dO5RKJfkZiluhUGzZsqWwsHD+/PnoLwA8EidDh0mcgsbvVSeOfr0w7WJodchjy5fLH9JiE9E+AInTDjOBigDx/YiuCHQvJQjCxqV+TIoLkCvEto5W5YI5zKqqqrCwMKFQSO5stG6BQDBnzpyampqgoCCEXASJgxXZTLUAVKJMoeBriQkNsM8E4j2EGAP2Ry5TrqzqxNGdFABCizb665AgiD+qOgUBtUwmY2qoPB4P0SZh7X8EVoxb/gUWRJb+wIfP5wsEAqZQHo/n6OgoEoloH0BHtFGuVqsVCoW0cnk8HjoIkTGr5dXpdIjoCLngGBSmDIPDO5hCeTyeXq8Hx53QPoOQy+fzhUIhU1yrcp2cnGglAs8By0WjwePx0HKlUun06dMLCwuXLVtGSyJMnjNnzmxtbQ0KCmIqlFAo1Gq1TKGIqkfjjG6TPB5PJBI5OjoyyUU0SxvlisViYDdHKxrdPIBtJG1Eq+WVSqUqlYoprkAgYGqxoOUgGh5aV8Qe3QAAIABJREFUtJ2dHRh30oq2KhfRAKw2aaVSaWdnZ4vcj8CYy/IvyLelP/ABOWMK5XK5jo6O4Bg2y2dAgS39gQ9aLmi1THG5XC6wUWZ6gClLXC7XqlxgPcWUslarRTyAkAtsUJmSBb2FKZTL5ep0OkQoWi6iIqzK1ev1THJBb0GEIuSCigADPdoUEHKFQuHs2bNv3769du1agUDAxNdM/rNnz25oaJg/fz6tXLCTBG0Qui/APkwbF5zdhSivUCh0dHRkiouoJnSugFymZLlcrkgkUqlUTA8g5IL2DE7+o42ObpMSiUSpVNJGBCkjehmaHNCASKVShULBJNcqOSDKi5bL5XIVCoVEIqEVje4psLzYYrO7U6O/EOGXCxMF4NUpEBmybhp6QgdajQM+5BHqBYQ6ZeLEifn5+evXr4eHrkGh/XQEBQVVVVWFhoZaPo9Qp6DXkPVHrYEoL5fL/Q2qUwDjWKIEfPDqFDIy6OZBEARenUKGy+TGFpsQEbT+EU2mv7vVKb6+vjU1NWvWrBGJRBCBd3Ww2ex58+bV1NTMmjWLEheTOBkQTOIUNBATV5jEyViZ3FZHxJjEIWR/EhLncrkBAQEPHjxYunQpYkgLYUE7WCzWrFmzWlpaZs+eTX4SkzgZDUziFDQwiZMBwRabfdBA9xa8xJDH4wUHB+fl5a1btw7Rkfpg2o+b4ODg9vb2gIAA+CwmcQgFPp6NDIXVkSUeiVPgwiNxKiB/8pN9QkJC8vPzN27cOGA9OBXQnvuZM2c2NjZC/Tgm8R5gTP/RYwusEydjhUmcjEZ360EPuLA6BUL2h1enTJ48ua6ubsOGDVKpFJb6PToWLFhQU1Mzd+5cbLFJQRWTOBkQtI4XkzgZK5MbjRee2CTj9QcmcQ6HM3v27IcPH65YsQJtdEYG5F3dHA5n7ty5TU1NM2fO5HK5cLcsSjroXgpCmWw9QB0hVPl4dQoZbVuWkKEXTeG9U8g4d7uZLDatriGzpZ4wiZNr4o9K4gKBYNGiRRUVFRs2bCCXd5DcISEhnZ2dwcHBmMQhwngkDqGwOrJEv+PfzxJDUB+Wf21Zzw+GLUyr+q2uYB/wen5gZIRYeM+UJWzsQ2kA6NrncrkIoxu0sY9Vcx508zAYDEuXLi0sLNy4caMtqwnJndCqe86cOa2trStXrqSgBG7R1hzo0P4Y+6jValq5aOOX/shlSvZ/aOwjFouxsQ+sF6tGRoAqGS020d0YGgtBeRSHWq0WiUQUT3CL7qU2ygWnu9LKRZOLVbmIVwuXy0VYbKLl2m6xyWTvh5YLOjlTXDQatpA4Wq5Vig8PD6+pqRk8PTgToc+fP7++vn7JkiWWTQtNl1bLCyzFLZMFPkKh0BYSZ6pfqy8PsVg8eBabiFzZaLGJ6KToarLRYnPAcoHFplQqpW0A/SVxplYLgGYKRW/6QxAEkzrF6g5HaLl/Qp04eiJXo9Gg9a2IUMS+faBJMdX+/2oDrMDAwI6OjlWrVjFtGITIsI1BHA5n4cKFLS0tM2fOpCSF7gs26sR5PN5v0GIT3Unx6hRyC0E3AIIgmDbAskqVkAyx2X034Oh2CfEiVw/Zjc3uIRroGSS0pSjTlAmfzw8NDa2rq1uyZAkU9OEdwcHBXV1dwcHBZNFopSe6D+OJTTKSf+BdDCnFJN9is3syGiY3XmIIEfnDTGzyeLz58+fn5+evWbNm8NaiQNzQjvnz5z969CgoKAg+hkkcQgEceCROBgTdPN7PxCZZHtmNHpki6gkkwqROYRpqQdFouVZHxJjEIZJ/GBIPCgq6d+/emjVrxGIxLN3/0DFnzpyHDx8uWrQI5AHdS/FInFxT6DaJR+JkrAjCZL7er/3EKdHgLZpMMYlDoIADq1MgIO9XneLv719XV7d8+fIPthYFFoTJwWKxFi1a1NzcPGfOHIIgMIlTgEKQAyZxClZ4JG4JCFan9GKC7jBo3fRvYRdDLpcbFBRUX18/Z84cMB4ZsWDj8W2zCIItlCjUSnv7RZv2hPnTnKrLk0zfvH/7PB+Gg29FDgr6Sy6zszgKSDYueP2elSOFvF5gAXEDvUpwcDBYX9QnmHSDR+IkMAh0m8QjcTJWeCROQcN0CxoQTYDZC/3lYVWNg0fiENj3MhLn8/kLFiwoKChYsmQJm80WyVRjps48eavqeX3arJlLD53JuX/xcFxBW8ONLVBut0OscF8aWf/FD9XXdgcHBXf/ZgX6eGjAAwLRpvTyyoqy8vLS8vKyysrySpPD7C65e7ZbRUII5WqNTq/T6b1XHLn1oi1rvOcQ861GLhSwe0SGhoY+efIkODgYoanHJN6Dluk/JnEyGsCNJzapmGCdOEQE3WF+yyNxLpcbGhqak5OzfPlysJpQ7eFzIPFaadvL75835Je0ftZVdjx8f2bdF235pzdt3LRp46a1oRMFfA5fppn2cXTp45eP8s8ePnjY/Iu+U/H0h686Ild4AWTE0phPf3hWeMUcWtr50+vW6+DJ9AdfvK7d2Q3f1D2xqXey7tzJupNd1fLdX79uzMsx36YcHj/SHkJMEPPmzevo6ECsmcEkTkILkzgZjG43JnEqKJjEISK/XxKfPXt2ZWVlWFhYjx5caPRauj8i+ur9x1+25t++/+nzjuKT57Mef/m6saDg/oOmz591FV/crFApV0TdbqgpvVtR01aRviVktLPz+PVHLlfWPbiwdbprj25FLI1u+7xw61QzTodvv6672r1gcF5E67PqHhJfm9P+RWnCgj7Xpv1pDztLFs5UQ4jNDqAfX7hwYV/v7jtM4mRY0G0Sq1PIWL2DOsXAcLmYL4ZAg9FodHFxYQo1GAweHh5MD7i6uhqNRqa4tstFJO7q6jpIcj09PQcm12AwMAEFghChBoPB09OTqUQGgwFRXhDKlGd0LRgMBi8vr4HJNRqNiAbg6uoaHh7e1tYWHBxMsnJy8JsSW1Db1NLa9erbn77/9mVnW3vX82/++e8vLwS7zw9PaalNCB6v5Agl7tPmBPi7OLsMWXoi6+WXXzx/8uLTmszNsyfo5RKRSCjgcVgEIZbGfP7vv331vNN0ffPTf/7+40uzs/PlX376pr6XxNteJK/oa0bn5r+nsLHIgsQ5HE5oaGhbW9vq1ast8USX12odubi4eHh4MEGNqCYglylif+S6u7szRUfIBY0W0fAQQSBXaLmWCMNMonOFLrKrq+vQoUNhUhSHi4vLgOVarYihQ4cyYdJPudjYp/vlh3Xi5FHA/2RiUyAQhIWFVVZWkldh9+TKccbik7eLHn753Q9P6+/dzC5tflj38MWPedHj5x0vr03bNFJNSMcsPXer4H5lQ8vD1trq0sr7hVevXM3IL2toae1sb2l6cP/8rmBnKSGWRne8rovbHBAQGBCQVPZ1R872QLN759Wuz8kj8dcPUo8dO0H6xVwqausstiBxkMOQkJDHjx+HhIT0ZLj7Px6JkwHBI3EyGsCN1SlUTLA6BSKC7jC/NZ04j8dbtmxZbm7uwoULSWNwc2k4At3IFRduNz9pLitr6Hz9ovV61L6tKwKDz5c+absbe7/lyoY5SoIQOc8/GH8uKeb49rWhPqNGxNxrTj4ePtR9qP+sOet3Hzm5f2eQ31CeaSQe3fFlY8L2gIAZAQGX7n/zKH/PDLN7/7Wnzx90j8T1Hxc/edVwtu91LbPq86eFoYEUdQoEfO7cua2trfPmzYM+RM8CRMTmBwKBAG9FCxETCAQyGc2CI/CALSMt9Hw73ooWVkGvAxv7QCyskil6PT+Xy4VJWTr+MCf7TJ8+vbi4eOHChTT7orD5HtOXRUceWT5la0ZDZ3Xa4R2bl8+f7CIdefDJX79/0ZyzZrqjCRmBdMTWc3eLSkqKSkqKS198/4/XnY0mt+m28OLeFS5m+MTO8Z/933ePaqqrK6urH339jx9fNlaa3Q3PfvyyrpvEFxxpftXUo1rpQV2i9JoRPMOgs1iG2PMAQYSEhNTW1pLP58Qj8V508OoUMhY9bjwS70Gi5z8eifcgYWUlwG9qJK5Wq/Pz81evXk2/Vo8nm7jucn17R0vjy5/++c/vnj1qa6pK2ztDK51R/OofT3MiZ4CxMZsjdfYc5evn5+u38UbtN013Pja7/Xz9kqo+Lzi7DZCvZMPNz+tub/E2X4nFX7flbAburZe7ekbiwz+O//zxvWEQyn472Gx2WFhYbm6up6cniIRJnAweekCDJzbJWL3DxCYlGrxFf7kgjLJACngkDpFEN1wWi/UnH4mLxeIzZ87s2LGDSedAEDylbuysoMl6zaH7T7oSwng8oUSpH7/vRtPXz9va2pvjtszWCkzWOGyuWKE1hGyPa37cdHSehgXqgOt+rfHZ5d2jTXcch/05jx5cWNf9xU63OoUt9D1wpb4r62NYg+/kEIvFhw4dSk9Pd3V1xeoUCnTovoBJnAIXNrunANI9MqX69tyjX1rY2KcHp+7/Wq2W4gNv0cpHyy+ApUuXpqam2tuTl1/DxKCDr3X1C553pe1Fx6kpQp3P0qR7DY+q08Jnesw+eK2xo+FieIBMPzps88lrBdW1xbePrfIl2CKdx5T5i8PCNl9r7ijdPM6UlM7/4IPHHQdm9aw3NJH49VXa4bMXhIXF5j77tHgNIXIP2lfWWnNyjhHKfleHXq/PzMw8duwYJnEKdJjEKYBgs3tLQLDZfS8m6A5jSaa9MQnig61OUSgU58+fDwsLQ0zumTMm9J66POZiyvlT68ZIJN4Tlu3ftW3uKNN4mqdwnha+fdfSKUqPgF1Hj29bv3SSh5rPJgiO1G3M4q279+7du3fT4mlmrTnh5r/y6N6Fve+fCXM3r5g7yXX6x/uPHjq0d8eaOc6Encf4ZTvXL1TbI1TfZKjo3WvWrKmsrGSxWFidQgYI3SbxSJyMFVanUNAw3YIGRBNg9sIjcTIyH4zEp02blpmZ6eXVbU5JzgPFzRWKlWq1TGwyeufweEIet1tbYmrsXD6bzSIIepV6n4SEYklvvJ4QNpfLZUNrei6HxzGtKLfl0uv1HR0dfn5+mMTJMGISJ6MB3IM7sUld6UWSDzb9YVZiDsrJPiwWC6g1EHLBWVaknPY6wWd+731fF4LE+yPX0dGRSbUN5DKNNEHiffPSfcdisXjmC1FerVbLFIpWawByYcqzVZwHrE4BciEaK1euPH/+PGJVWS8ybA6P171Qx+QEPMticYRCsxFP74O0LjaXxzHxvMXFYvGQKXD5ArGQYxHNusfVq1c3btxIKS8lGiA1iAYlFIzFVCqVpT8YlCCaBzhviCllq3L5fL5CoRiAXHBwMNPbFN0XCIIQCoVyuRwhl8vlMjV4tM4T3R0QSwxBNxywXPTBT+Bknx7L5D7lBt/KiMVpoPYJgvhIwHAJhUKGkG5v9AMajUYikdCmgI6IDhUIBOgHtFqtWCymlYuOi04WHVcgEOh0OkQKiCCmrEJ/dFy9Xg+ftHSg46JDLVMj+zg5OZFvKW50yuTQtWvXnj171sGhR0ndpxn3vfEcv3JTmL1USLDthk1dsW1BoFrI5au8Fh87tmC8i4llOTyF76TAwMDA6ROGuvlNM7lm+I/US/gEIbJzX7xqso+eIOQGd6/h3sPNPy9XR4FIqV197FTIBLD+sK9E892UJZsTDo0SC2iC0F7Jycnbtm2z2nLIaFBgFAgEEolEo9FY+kMfRHREkNVcSaVScFwtFER2oFNGJ46Oa2dnp1arybLIbnRctFx0qL29vVKpJMsiuwdPrkAgUKlU9vb2ZHHQ3U+5H7EYLjAyZQg0jYj5fD5TKIvFAqtTaB/g8/kcDoc2iPzSo30AjhBpQ1ksFhiJ04bCVzFtqNXy8ng82ojAE4zEaR+Aow/aUDASZwqCQy2mB8AZm7Sh6PLCkThtXGBvThsEPMEXAO0D/ZHLZrNB3NWrV/eXxOdvzavNdtYqhbpRiw6kVpdfWxw4PiA8qb6p4viyaXIRj7BXBuS21rS1tD9vjI4s//LV0+Z77c2Z60OXzpk33xh0q2jfqvEEEZqYVdlU39RU3/Sw6UHaJx56t9Cih9VbF3avCCQIQjPEO3RZePia7t/5zJLP6qM+3tjrEzZrFJq+QWhycvKWLVvgSJwWKzgiZgrl8XgqlYopFNEd4EicKS4wMkKEKhQKplB0s0TkympfACNxhFwwIqZ9ACEXTE4IBALaiCwWC4zEmUJtIQc4EmdKXCaTiUQi2lBw/jJtEFk9gM3uu/sjQp0CvhARyiWCIPBWtJDXIIlDH7KDMqE6e/bsy5cvGwwG8jP0bkDizvrhn1wuqK5pqK99UPmgquHR45bG6jvnRg83EPbK6RmlR5PPX35QHhVZ/rg8O37F9fKb60/cys1L8egh8SFTghYsWbRkyaK91wvbqmN83Ffc+uzrT/NvxEdFRkVFROxePnve9AXJtwoL8wsLC8rq255//7d//uP/fvruZWd5vtkzv/DaKevnfNrZ2VVWVs6YMQOQOJMGAJI4fZEJgsvl/gYPSkafo41YfwzKy4QGntikNAO8xJACCJ7Y7AMIhUz7hH3A1SlOTk43btyYOXMmomMThGSU/+Gc1ld//en7lsayO5lVn756VHF1S3ZTY1n87OuVz17W502b4MVE4qfuFBRc9ewhcfMEt2ls47Mrobw82u+TvK5XndVZtzLvVDz67nXrpU+WeIskaq3eydmwJLrk6ZOGhpbG9rK0yq4X9bdPhPg5O+n1jgopBS7L2xkzZtTU1AiFQkziZHAwiZPRAO7BndhE6NQRL1uQM2zsA2sL3XCxsc+qVavi4+OZptHMMHIcVJ6T9p6tbypevnLR2qTy0tyCnLSr9x4/r7pyO/XWjfTMO1MneHHcfNbeqz13+2ZWc/2V5PrPGkrT9uXV5+2PzrlPInGXees/OXT40KHDMTk17XVXCz/7fz92ZkTMEHOCTmU+rTynIDhie5375PlRWbWf1mfvCPJetSuqIn2yTh8Qn1v7aXPRyRUhI13AekVYw1SHVCpNTEw8ceIEXidOgQbdF/BInAIXHolTAMEj8T6A/EZG4gRBGAyGmzdv7tq1q0/+LG+AOsXoPC6yqP5+4bVLl4oedtVm3Ui+eq2sOHPSGHf5JxcfPfv61ZMn33z7VVfnV3/7/mXX45dfdZWllncV9o7E59xs+fpZ02XzlZJV0f6s6lpVTdaa2RNPZDY1XJlLEJIRs3dkllXmVNZmxO1cvXJ1VPLt6rzjG9et3nbgaEZ6cVVZVU5kqGXuoI9EItmxY0dxcfGECRMwiUNYgAOTOAUQbOxjCQg29unFBN1hfjskThDEyJEjCwsLLfdx7S0MQRCAxPVq5bTlx67d7d7ZyrS/VX76oU0eCjuh74xTxU3Xsm8XttRfS6t/3lKWHllQX3AyNq+KNBKfk9704sZ+kLBgyPiAWdNH7cutvZyWU9n26PwM02I+O71xwnhf7cbrr5/VJJmPDTIdHrR9T9KDJ00n98/z9B0zRNQnY6QbFosFFClr1qwRCEwrWrA6hQRP90AKoTrDuxiS4cIjcTIaJjcgNapvzz2e2OxBwvT/gxn7AKEsFis8PLyiosLHx4ecjT5uM4lPX7ouYNmo9XcrKwqz06+np1+/XVhWmbM5bChBCGXqyJKGnonN+w15qZvNE5t9deJkEjcnz1VMX3e98y9//7IhYaS8l51ZKy7/5cevHhaXlYFfWXXrF988PLnNr0+eqDd2dnaNjY2HDx+WSCQgDJM4GSP0wAKrU8hYvR+LTcR6DLjEkCIV3jLpxMEAkMnGBOT7/7d3/b9NXVe8f8Oz33v+bpzY2HEc/IV8DyEOSUpCESOjsJZObToKCmxkhW6Eoq4tDSGJk1gBaWNbpa20tCsEwhd7cSCWAhVfSllJ1dFN1aZKW6Xth0n9F7o6J725ec/3OLVDCeFYUXTe/Xbu/bzzPn4+95z3EF88iyJiijQCkuxTOIkjdxCFRKeI1stHEWmWyQ4hxJAd8sJ3ihLhO0I0jmhW0HKxkn2YXrvdfvTo0cnJyZaWFl2KirEoEN37m4t///I///j05tH+F17+4NOPro3PkPiFa7emP3j1ZzWSZCv2/uHqrZ7fDWaiU967+5exEz+aIfFfDA4NvFb+7cbm9tG7/74UDzRs2j78zrm3X69UVcf6jiN3/vvVJ3/cEVzBsjYlQ+fJf969+NJsRPmaNS0b91+cvjN4sJHNWCf4fL7p6elYLMZfOEDiuhXNdgabFNXiyT4saCqrWRb45ZEz2QdPfhEl++Rc70KSfXTAzxYAOYhq8cthIck+opFxvSzEUNQdQgz1tUCVyGUIgZ6ZZB+Q9P8h4FxfDiUmk8lsNotqVVX1+Xw2my1rA7PZbDKZslapqgrx7aLanHr9fr/FYhF1x6uQFeXUW1painRH9OIj47WqqgYCARxMERQmk8lisYj64udIVdWysjLRyHASRbWIXq/XG4vFxsfHW1pa5tu0I9p29L2x9+Mv76y2maXKpqwk7vK0TnyYOtD7wtu3Pjg59UX6xO5tMyS+plSS3KWzJO7bPfH5V//74t5fP75x6Z1fv7R73Q93vDrx8b2r12589vm9UweeinjMksla5POX7RpM37p9e97ftdFfvfhEmd/jyJLAWVNTMzU1dezYMc3CkfVCS8Q2VFW1Wq0lJSWaMdkhYh4F6rXb7V6vlynSCLh5QFqNpgs7xNfrcDhWrlzJGmuEQvTiZul0OuG+U6MRDgvRi5wjGNzj8Tidzvz0Auc8Jgs+ppmPoFJWVdVsNotqZVn2er0WiyVrA1CctUqWZcBLVKuqKuQKiRr4fD5RA0VRRFPKqRdHQ5Zlv98PDiz9xECvoij6KvBaiCYM3+FIrSzLpaWlyMgWiwWpRU5ETpwDgUDW5cCKzGYzrldU6/P5BgcHr1y5Ul9fz/N4xt4s3yZNCki87tlTd6b/HH/rT3c/m/7kX18m+g+fvPTRtZHOykjb/v6Rdz/68LXOFqli54l3fv/6L/e0rwvZTWVPHnrrk79Nvz+8p66ievPPf3v7s3tn+p4Nb9h44MS758fOC/5OHX1OmwdfW1ubTCaHh4edTqcGFkVR8kYDzNLr9WrGZIeIWcIVKsIZt0lZlq1WKzyan+niBUQvGK2IHHLqtdlsHo+H18XLeevNaZZ2u724uJjXxctwr8OX8DLQNF/Cyzmp8ptnwNntdr4Lk5ErlCcHSvaZ5QryifOk+T37xHnVPp+vr68vnU6vXbuWL5+TPWVP7Dvw/DPtjZlP69PP7X9xU/NKSfLVt/342W1NG7du39Le3vmTbVVt257Z2hryWx3N3f1Drx94YXXAJUkrSnzsmbfFG5//aecPWgJFpszgZl90447nn6r1rAo0bNr69FNPC/6eXF855zqXJCkQCKTT6eHh4axPgCnQrUHJPnPnXZIKuUjzdqcs0MfLz5OXwQD4Eo1MceIaQCg6ZQ4QfBNpSUWnzE165kmEK1asiMViExMTDQ0NWRy+BqNiNisy+K8NsmwyK7MPHZxzLs/bdTGarVazKYsPRFaU+aWycf4xP7GsssvlunPnzsjICNvJ1DQjEucBwW2SNjZ5rBZnYxPxqVOyjwbuQjY25xHO/HHx/ObMgz5KSub3mDvCL5ilTOJGo9HpdPb29iaTyebm5iw8PrfKBylVVVVdv359YGBAtI9HIYaa04PbJJG4Bi4KMdQAQiGG8wBZ4iQuSZLb7e7v708mk2vWrJk39SVwYDAY6uvrL126FI/HYRdHNCm6E+eRIRLn0QCZ3ClaTOhFyQwR/IJZ+iQuSVJxcfGRI0dSqVRtbR5vLWZILL5QWVmZSCQGBgZcLhfu9CQS59HHbZLuxHmsyJ2iQSNzCAaUpWKmqJA9E3qKIY8qvoOEf3lIMz7xOde2JDkcDvCPs/fH87oeiOxyua5fvx6Px+G9oETimrOA+FqJxDVYUdq9HhDa2JzDBL9gcDJ9gNEpJpOJJ3FJkmw22+HDhxOJRGNj44P1jxsMhvLy8ps3b/b29rKZEInP2dyMRCTOA4KbB5E4j9WsTO4UBsqyIXEw9J6ennPnzjU0LOiFDAyERRQMBkNDQ0MymRwaGuKHxa9SqGWMz3dkvw41X1p8Gwox5NEo5Ocy/gMRydh8CEIMIf5B/x8yNvXlUMLSkEQNfD6f1WrV10LoO7yxQl8LmRFIbU69JSUlkOGiHxxStvTlUALbU1lrIfMFAu+zNlAUxe/3i6bNUsWy9oXBRVUsbzZrA0VRSktLwbL1DXLqRZacE+dAIKDXCCUL0YvMWTQrr9fb09OTTCYX8lZl/spfFBl2MsfGxoaGhoqKivi141iBwSPrhQxGfkBetlqtPp+PL2EyjCwyy5yzwvXabDZ4ggVTxwRcLzyQA/KbWBcm4LahKIrdbvd4PKw9LzDqEIEJS+a78DKu2uFwuN1uvj2TmV5WohFwvfiJgC9ph8OhGRNS+UXXAjRmFF1QxqYoHwzJ2ASaFiU38mlILG2JFxjl8YW8DC8G5EuYjGdsIklZYJfA0Ww0jQC50ZpCOMSz1OBsiTpCihqCcyEZm8iSF6I365xzpsYBmKIV4ebhcrn6+vouX778/e9zBoPBVCoVi8X0+YRwkSMrQiwHz+eUZdlisYgyNnGzxK8U3CbxjE1cL/hSRGnGOfXabDa3253VtArRm9MsHQ6HKGMT9BZCWUjKrizLooxN/FrgqTL/jE0kNlaScrztHvn9CF+zorsn/FkzkrQMfeL805T0sNynOHH4qterYyV5PwAL98VDLRI4H4lEDh48mEwmo9GoyEfBJrkogsFgWLVq1dWrVyGaUD8mXE6iySxLdwp+kZJPnDcS3ADgbfcWi4XvwmSKE2dQzAoUncIjgpPpktrY5Kft9/utVmt3d/fY2JjuOVl8w8WRjUbj2rVrU6nU4OCg1+vNOij5xDWwEInzgODmQRubPFazMm1sMlCW08YmWxT8ArDb7d3d3cnfYdufAAAElUlEQVRksq6ujlUtumA0GhsbG0dHR/v7+8FHnFUFfpXiN2JwjpAfprSxyWOO/wLAf6Yv541NHiNexvFCvmxhENHzxPWBwLzSAjeCl6U7BXn4wTJOu9dYBTtkbhyr1bp3797JyUnhc7JYn3yF2trasbGx3t5el8sF2zxZRyIS18CCkAN+Y0HJPhokyZ2iAYSSfeYB8vC6U9gyVFXt6uq6cuXK/eBxv9+fTqdjsZjDkXm3PZE4gz3nO0OIxHms8O94cqfwWM3K5E5hoOB3PcuAxIFNOjs7E4nE+vXrEacEw2QhgtForK+vv3z5ck9PD2tPJM6gIBLnoWDvV9IUskMicQbFrIC7vcidwuP1KJA4eOe6urouXLjQ3NzMLz8/WZblpqam0dHRWCzGj0AkzqOBBy/RnTiPFZE4j0ZGJhLXIHKfQgyXcnSKBgHg8V27dk1MTDQ2Iq/A1PfTlhgMhsbGxtOnT/f09DidTr6aSJxHg0hcgwYSB0wkzmOVkYnENYgQiQMgiqJ0dHRMTU1Fo1ENRAs/LC8vTyQSfX198GQrviOROI8GkbgGjQdM4kHBJzzzEVQGQ6FQOBwW1X6T3lZVVSVqEIlEQqGQqG/hepHBI5HIfdJbXV2dn95gMCgCCqqQ2mAwWF1dLVpRMBhE1gu1ojnjZyEYDNbU1OSnNxQK4QaA1yJ6I5HIvn37UqlUa2vrd/WPG43Gurq6ycnJY8eOrV69Wr+0UChUVVWlLw8GM9cCgvNC1pt1WCgMh8Mivbh54LPKaRvhcLiyslI0Mdw8wuEwAghSBbPC9YosFkcDFoKojkQiFRUVyHrz1pvzRFRUVIgmFg6HF6I3/4xN5MsHydikEEP+OxwegYQkKOK3PI9yiKEGRkmSjEaj1WrdsWPH+fPnN2zYoG8gKlEU5fHHH4d7cFEbuhPnkcHNknziPFbkTuHRyMjkTtEgQu4UBghkc8iy3NHRkUql1q1bx6oQQZbl1tbWs2fPDgwMiN6TSSGGGgCJxHlAcFIiEuexysg4XhSdwuP1iESnsCWzlDyDwdDe3n7jxo1Nmzbl9Kts2bJlfHy8t7cXeUsqkTgDGQQicR4QnJSIxHmsMjKOF5E4j9cjS+IAQltb28WLF/fv319cXMzDAjKAs3v37unp6Z07d9psNv3LKPhe5E7h0SAS16CB+JaJxHmsMjKRuAYRcqcwQNidOCuprq4+c+bMqVOnNm/eHAgE2N6D1+vdunXrm2++efv27aamJtiZIBJnuMHGldvt5kt4mUhcgwaROA+IhD+zhUh8HliSRCTOANGTuCRJNTU18Xg8nU6fPn36jTfeOHTo0CuvvHLy5Mnx8fHjx4+z9wTh+avkTmEgg0AkzgOCkxLdifNYZWQcL3Kn8Hg94u4UBoXFYolGo11dXcePHx8ZGYnH43v27IlGozabjbUhEmdQgGAymehOnGFSyJ0lkTiDcVYgEtcgQnfiDJCsd+KsVlXVoqIih8Nhs9n0u51E4gwoEIjEeUCWOol/TR9CgBAgBAiBhxaBxx7amdPECQFCgBAgBL4mEicjIAQIAULgIUbg/5/o4n8VZWE4AAAAAElFTkSuQmCC;" vertex="1" parent="1">
          <mxGeometry x="-230" y="23" width="492" height="377" as="geometry" />
        </mxCell>
        <mxCell id="R96NSeAY9rBo8u3nE3na-5" value="" style="edgeStyle=orthogonalEdgeStyle;rounded=0;orthogonalLoop=1;jettySize=auto;html=1;" edge="1" parent="1" source="R96NSeAY9rBo8u3nE3na-3" target="R96NSeAY9rBo8u3nE3na-4">
          <mxGeometry relative="1" as="geometry" />
        </mxCell>
        <mxCell id="R96NSeAY9rBo8u3nE3na-7" value="" style="edgeStyle=orthogonalEdgeStyle;rounded=0;orthogonalLoop=1;jettySize=auto;html=1;" edge="1" parent="1" source="R96NSeAY9rBo8u3nE3na-3" target="R96NSeAY9rBo8u3nE3na-6">
          <mxGeometry relative="1" as="geometry" />
        </mxCell>
        <mxCell id="R96NSeAY9rBo8u3nE3na-11" value="" style="edgeStyle=orthogonalEdgeStyle;rounded=0;orthogonalLoop=1;jettySize=auto;html=1;entryX=0.5;entryY=0;entryDx=0;entryDy=0;" edge="1" parent="1" source="R96NSeAY9rBo8u3nE3na-3" target="R96NSeAY9rBo8u3nE3na-13">
          <mxGeometry relative="1" as="geometry">
            <mxPoint x="660" y="320" as="targetPoint" />
          </mxGeometry>
        </mxCell>
        <mxCell id="R96NSeAY9rBo8u3nE3na-3" value="系统管理员" style="rounded=1;whiteSpace=wrap;html=1;" vertex="1" parent="1">
          <mxGeometry x="600" y="190" width="120" height="60" as="geometry" />
        </mxCell>
        <mxCell id="R96NSeAY9rBo8u3nE3na-4" value="管理" style="rhombus;whiteSpace=wrap;html=1;rounded=1;" vertex="1" parent="1">
          <mxGeometry x="470" y="180" width="80" height="80" as="geometry" />
        </mxCell>
        <mxCell id="R96NSeAY9rBo8u3nE3na-6" value="" style="rhombus;whiteSpace=wrap;html=1;rounded=1;" vertex="1" parent="1">
          <mxGeometry x="620" y="70" width="80" height="80" as="geometry" />
        </mxCell>
        <mxCell id="R96NSeAY9rBo8u3nE3na-8" value="" style="rhombus;whiteSpace=wrap;html=1;rounded=1;" vertex="1" parent="1">
          <mxGeometry x="770" y="180" width="80" height="80" as="geometry" />
        </mxCell>
        <mxCell id="R96NSeAY9rBo8u3nE3na-12" value="管理" style="rhombus;whiteSpace=wrap;html=1;rounded=1;" vertex="1" parent="1">
          <mxGeometry x="620" y="70" width="80" height="80" as="geometry" />
        </mxCell>
        <mxCell id="R96NSeAY9rBo8u3nE3na-13" value="管理" style="rhombus;whiteSpace=wrap;html=1;rounded=1;" vertex="1" parent="1">
          <mxGeometry x="620" y="290" width="80" height="80" as="geometry" />
        </mxCell>
        <mxCell id="R96NSeAY9rBo8u3nE3na-15" value="" style="edgeStyle=orthogonalEdgeStyle;rounded=0;orthogonalLoop=1;jettySize=auto;html=1;" edge="1" parent="1" source="R96NSeAY9rBo8u3nE3na-3" target="R96NSeAY9rBo8u3nE3na-14">
          <mxGeometry relative="1" as="geometry">
            <mxPoint x="720" y="220" as="sourcePoint" />
            <mxPoint x="820" y="220" as="targetPoint" />
          </mxGeometry>
        </mxCell>
        <mxCell id="R96NSeAY9rBo8u3nE3na-14" value="管理" style="rhombus;whiteSpace=wrap;html=1;rounded=1;" vertex="1" parent="1">
          <mxGeometry x="770" y="180" width="80" height="80" as="geometry" />
        </mxCell>
        <mxCell id="R96NSeAY9rBo8u3nE3na-16" value="学生" style="rounded=1;whiteSpace=wrap;html=1;" vertex="1" parent="1">
          <mxGeometry x="310" y="190" width="120" height="60" as="geometry" />
        </mxCell>
        <mxCell id="R96NSeAY9rBo8u3nE3na-18" value="教务" style="rounded=1;whiteSpace=wrap;html=1;" vertex="1" parent="1">
          <mxGeometry x="600" y="-37" width="120" height="60" as="geometry" />
        </mxCell>
        <mxCell id="R96NSeAY9rBo8u3nE3na-19" value="教师" style="rounded=1;whiteSpace=wrap;html=1;" vertex="1" parent="1">
          <mxGeometry x="600" y="400" width="120" height="60" as="geometry" />
        </mxCell>
        <mxCell id="R96NSeAY9rBo8u3nE3na-20" value="评委" style="rounded=1;whiteSpace=wrap;html=1;" vertex="1" parent="1">
          <mxGeometry x="910" y="190" width="120" height="60" as="geometry" />
        </mxCell>
        <mxCell id="R96NSeAY9rBo8u3nE3na-21" value="" style="endArrow=classic;html=1;rounded=0;entryX=0;entryY=0.5;entryDx=0;entryDy=0;exitX=1;exitY=0.5;exitDx=0;exitDy=0;" edge="1" parent="1" source="R96NSeAY9rBo8u3nE3na-16" target="R96NSeAY9rBo8u3nE3na-4">
          <mxGeometry width="50" height="50" relative="1" as="geometry">
            <mxPoint x="460" y="250" as="sourcePoint" />
            <mxPoint x="480" y="170" as="targetPoint" />
          </mxGeometry>
        </mxCell>
        <mxCell id="R96NSeAY9rBo8u3nE3na-22" value="" style="endArrow=classic;html=1;rounded=0;entryX=0.5;entryY=0;entryDx=0;entryDy=0;exitX=0.5;exitY=1;exitDx=0;exitDy=0;" edge="1" parent="1" source="R96NSeAY9rBo8u3nE3na-18" target="R96NSeAY9rBo8u3nE3na-12">
          <mxGeometry width="50" height="50" relative="1" as="geometry">
            <mxPoint x="470" y="220" as="sourcePoint" />
            <mxPoint x="480" y="230" as="targetPoint" />
          </mxGeometry>
        </mxCell>
        <mxCell id="R96NSeAY9rBo8u3nE3na-23" value="" style="endArrow=classic;html=1;rounded=0;entryX=0.5;entryY=1;entryDx=0;entryDy=0;exitX=0.5;exitY=0;exitDx=0;exitDy=0;" edge="1" parent="1" source="R96NSeAY9rBo8u3nE3na-19" target="R96NSeAY9rBo8u3nE3na-13">
          <mxGeometry width="50" height="50" relative="1" as="geometry">
            <mxPoint x="450" y="240" as="sourcePoint" />
            <mxPoint x="490" y="240" as="targetPoint" />
          </mxGeometry>
        </mxCell>
        <mxCell id="R96NSeAY9rBo8u3nE3na-24" value="" style="endArrow=classic;html=1;rounded=0;entryX=1;entryY=0.5;entryDx=0;entryDy=0;" edge="1" parent="1" source="R96NSeAY9rBo8u3nE3na-20" target="R96NSeAY9rBo8u3nE3na-14">
          <mxGeometry width="50" height="50" relative="1" as="geometry">
            <mxPoint x="460" y="250" as="sourcePoint" />
            <mxPoint x="500" y="250" as="targetPoint" />
          </mxGeometry>
        </mxCell>
      </root>
    </mxGraphModel>
  </diagram>
</mxfile>
